<?xml version="1.0" standalone="no"?>
<!DOCTYPE svg PUBLIC "-//W3C//DTD SVG 20010904//EN"
 "http://www.w3.org/TR/2001/REC-SVG-20010904/DTD/svg10.dtd">
<svg version="1.0" xmlns="http://www.w3.org/2000/svg"
 width="1900.000000pt" height="1900.000000pt" viewBox="0 0 1900.000000 1900.000000"
 preserveAspectRatio="xMidYMid meet">
<metadata>
Created by potrace 1.11, written by Peter Selinger 2001-2013
</metadata>
<g transform="translate(0.000000,1900.000000) scale(0.100000,-0.100000)"
fill="#000000" stroke="none">
<path d="M8989 14636 c7 -8 -6 -11 -42 -10 -29 1 -57 -3 -64 -8 -7 -6 -17 -7
-23 -3 -5 3 -10 2 -10 -3 0 -5 -10 -8 -22 -7 -31 3 -43 -5 -27 -17 11 -7 9 -8
-4 -4 -10 3 -23 6 -28 6 -6 0 -7 6 -3 13 5 7 0 6 -11 -3 -13 -11 -17 -11 -11
-2 6 10 3 13 -10 10 -11 -2 -18 -11 -18 -21 2 -14 -1 -15 -11 -7 -10 8 -15 6
-20 -10 -3 -11 -11 -18 -16 -15 -5 3 -6 -1 -3 -9 3 -9 -3 -17 -16 -21 -12 -4
-19 -9 -17 -12 7 -6 -47 -61 -55 -56 -4 2 -5 -3 -2 -12 4 -9 3 -15 -2 -13 -9
3 -52 -35 -56 -49 -2 -5 -6 -7 -10 -5 -5 1 -8 -5 -8 -13 0 -8 -7 -15 -16 -15
-14 0 -15 -2 -3 -17 10 -11 10 -14 2 -9 -7 4 -13 3 -13 -3 0 -5 5 -13 11 -17
8 -4 8 -9 1 -13 -6 -4 -13 -24 -16 -46 -2 -22 -5 -40 -6 -40 -7 0 -6 -36 0
-40 5 -3 7 -12 4 -20 -4 -8 -10 -12 -15 -9 -5 3 -6 -2 -3 -10 3 -9 11 -13 17
-9 6 4 7 1 2 -8 -14 -22 -15 -60 -2 -52 9 5 9 3 1 -8 -9 -12 -11 -33 -4 -41 7
-10 7 -37 -1 -32 -12 7 -11 -3 2 -28 8 -15 8 -19 0 -14 -7 5 -11 -1 -11 -14 0
-12 4 -19 9 -16 11 7 9 -13 -3 -33 -5 -8 -3 -16 5 -22 12 -7 11 -9 -1 -9 -12
0 -12 -2 -1 -9 9 -6 10 -11 2 -15 -7 -5 -8 -13 -1 -25 6 -12 5 -22 -2 -29 -9
-9 -9 -12 0 -12 7 0 12 -5 12 -11 0 -5 -4 -8 -8 -5 -11 6 -9 -25 2 -43 5 -8 3
-17 -5 -22 -12 -8 -12 -11 1 -19 13 -9 13 -10 0 -10 -13 0 -13 -1 0 -10 13 -9
13 -11 0 -20 -12 -8 -13 -11 -1 -19 11 -7 11 -9 0 -14 -12 -5 -12 -6 0 -6 11
-1 11 -4 1 -16 -9 -11 -9 -15 -1 -15 9 0 9 -5 1 -21 -8 -14 -8 -24 -1 -33 7
-9 7 -16 -2 -26 -10 -10 -9 -11 3 -5 13 8 13 6 2 -7 -9 -11 -9 -17 -2 -20 8
-2 8 -11 1 -30 -7 -20 -7 -28 2 -31 9 -3 9 -9 -1 -26 -8 -14 -8 -21 -1 -21 5
0 7 -5 3 -12 -10 -16 -13 -48 -4 -43 4 3 8 -6 8 -20 0 -14 -5 -22 -10 -19 -6
4 -5 -4 2 -16 10 -18 9 -24 -1 -31 -8 -5 -9 -9 -4 -9 12 0 13 -59 2 -77 -4 -6
-2 -15 4 -19 8 -5 9 -3 4 6 -6 9 -4 11 5 5 10 -6 9 -11 -5 -22 -11 -7 -14 -13
-9 -13 13 0 12 -63 -1 -72 -6 -5 -6 -8 2 -8 6 0 11 -9 10 -20 -1 -11 -5 -20
-9 -20 -5 0 -4 -9 2 -21 8 -14 8 -24 1 -33 -6 -7 -8 -16 -4 -19 13 -13 13 -67
0 -67 -8 0 -7 -4 3 -10 13 -9 13 -11 0 -20 -8 -5 -10 -10 -4 -10 12 0 13 -158
1 -177 -4 -6 -3 -14 2 -17 12 -8 11 -60 -3 -68 -7 -5 -8 -8 0 -8 7 0 10 -47
10 -146 -1 -80 2 -148 7 -151 4 -2 4 -10 0 -16 -10 -16 -10 -158 0 -164 4 -3
4 -10 -1 -16 -4 -7 -8 -17 -8 -24 1 -16 47 -54 57 -47 5 3 9 1 9 -5 0 -5 14
-8 30 -6 17 2 30 -1 30 -7 0 -7 5 -6 14 1 12 10 16 8 21 -10 6 -17 9 -19 16
-8 7 11 9 10 9 -4 0 -10 7 -20 15 -23 8 -4 12 -10 9 -15 -3 -5 1 -9 8 -9 9 0
9 -3 -2 -10 -8 -5 -10 -10 -5 -10 14 0 16 -39 4 -62 -6 -10 -15 -15 -21 -12
-7 4 -8 3 -4 -4 8 -13 -52 -54 -66 -46 -4 3 -8 0 -8 -6 0 -7 -6 -10 -14 -7 -7
3 -19 0 -25 -6 -7 -7 -11 -7 -11 -1 0 6 -13 9 -30 6 -16 -2 -27 -8 -24 -13 3
-5 -1 -9 -9 -9 -18 0 -28 -75 -13 -90 7 -7 6 -10 0 -10 -14 0 -8 -77 8 -107 6
-12 15 -20 20 -17 4 3 8 0 8 -5 0 -6 5 -11 11 -11 5 0 7 6 3 13 -6 9 -4 9 7 1
8 -6 23 -14 33 -18 15 -5 17 -4 8 7 -9 10 -8 14 3 14 8 0 15 -3 15 -7 0 -3 36
-6 79 -6 51 1 77 4 73 11 -3 5 2 4 11 -4 9 -7 17 -10 17 -6 0 4 7 2 15 -5 13
-11 14 -10 9 5 -6 15 -4 16 13 7 11 -6 23 -8 27 -5 3 4 17 7 31 8 19 0 24 -3
20 -15 -3 -9 1 -8 10 4 13 18 20 15 16 -7 -1 -4 11 0 26 10 15 10 24 13 20 7
-4 -7 -1 -14 7 -17 10 -4 11 -17 6 -51 -4 -25 -5 -48 -2 -50 9 -10 7 -116 -3
-116 -7 0 -7 -3 0 -8 12 -8 14 -112 2 -112 -5 0 -5 -5 -1 -11 9 -16 11 -109 1
-109 -5 0 -5 -5 -1 -11 11 -18 10 -109 -1 -109 -7 0 -7 -3 0 -8 12 -8 14 -112
2 -112 -5 0 -5 -5 -1 -12 4 -6 7 -50 6 -97 0 -52 4 -92 11 -100 10 -12 9 -13
-2 -6 -11 6 -13 4 -8 -8 3 -10 2 -17 -4 -17 -6 0 -7 -6 -2 -12 11 -18 10 -42
-2 -50 -6 -5 -5 -8 2 -8 9 0 10 -7 3 -25 -6 -16 -6 -27 2 -31 7 -5 8 -3 3 6
-5 9 -4 11 4 6 8 -5 9 -12 3 -19 -6 -7 -9 -23 -8 -37 1 -14 -1 -35 -6 -47 -4
-12 -3 -25 1 -27 5 -3 7 -20 5 -37 -2 -18 2 -39 9 -47 7 -10 8 -13 1 -9 -7 4
-14 -2 -17 -13 -3 -12 -1 -18 5 -14 6 4 8 -1 3 -15 -4 -14 -2 -21 7 -21 8 0 9
-3 3 -8 -16 -10 -17 -54 -2 -45 7 3 3 -4 -8 -17 -11 -13 -15 -20 -9 -17 7 4
15 0 18 -9 3 -8 2 -13 -3 -10 -5 3 -8 -6 -8 -19 0 -14 5 -25 11 -25 8 0 8 -2
0 -8 -14 -9 -14 -43 0 -61 8 -11 8 -13 0 -8 -7 4 -11 -2 -11 -18 0 -16 4 -22
11 -18 7 4 6 1 -1 -8 -9 -11 -9 -19 -2 -26 8 -8 7 -13 -2 -18 -8 -6 -10 -4 -4
5 5 9 4 11 -4 6 -9 -6 -9 -11 -1 -21 6 -7 8 -20 4 -29 -4 -10 -1 -16 7 -16 11
0 11 -3 -1 -10 -13 -9 -13 -11 0 -20 8 -5 10 -10 4 -10 -14 0 -14 -33 0 -42 7
-5 7 -8 -2 -8 -8 0 -10 -5 -5 -12 12 -20 12 -37 1 -44 -6 -4 -5 -10 3 -15 12
-7 12 -9 0 -9 -10 0 -11 -3 -2 -14 8 -10 9 -16 1 -21 -5 -3 -10 -11 -10 -16 0
-6 5 -7 10 -4 13 8 8 -17 -5 -27 -6 -5 -5 -11 4 -17 11 -7 11 -9 0 -14 -12 -5
-12 -6 0 -6 11 -1 11 -4 0 -17 -10 -13 -10 -17 2 -25 10 -6 11 -9 1 -9 -8 0
-10 -5 -5 -12 11 -18 13 -39 3 -33 -10 6 -8 -15 3 -32 5 -8 3 -13 -4 -13 -8 0
-7 -5 2 -17 8 -9 9 -14 3 -10 -6 3 -11 0 -11 -8 0 -8 4 -12 8 -10 4 3 6 -6 5
-20 0 -14 -5 -25 -11 -25 -5 0 -3 -5 5 -10 9 -6 11 -13 5 -17 -13 -11 -18 -36
-5 -28 5 3 10 2 10 -4 0 -5 -4 -12 -9 -15 -10 -7 -9 -31 2 -42 4 -4 -1 -13
-11 -21 -15 -12 -15 -13 0 -7 13 4 16 0 15 -15 -1 -12 -6 -21 -12 -21 -5 0 -3
-5 5 -10 13 -9 13 -11 0 -20 -12 -8 -12 -10 -1 -10 10 0 11 -3 2 -13 -6 -8 -8
-17 -4 -21 12 -12 12 -40 0 -55 -9 -12 -9 -13 1 -7 6 4 12 3 12 -1 0 -5 -6
-15 -12 -22 -11 -11 -10 -12 2 -6 13 8 13 7 1 -8 -7 -9 -10 -17 -6 -17 4 0 2
-7 -5 -15 -7 -8 -9 -15 -5 -15 4 0 2 -7 -5 -15 -6 -8 -9 -23 -5 -36 5 -14 4
-19 -4 -15 -11 7 -14 -1 -14 -37 0 -10 -5 -16 -11 -14 -8 3 -11 -5 -8 -25 3
-21 1 -29 -7 -24 -7 5 -9 1 -4 -10 4 -10 2 -15 -3 -11 -6 3 -10 -6 -9 -21 0
-15 -4 -30 -9 -34 -9 -6 -16 -37 -16 -63 1 -58 7 -101 14 -107 6 -4 4 -13 -3
-22 -8 -9 -9 -16 -4 -16 10 0 13 -12 15 -77 1 -24 6 -43 11 -43 5 0 5 -6 -1
-13 -8 -10 -8 -19 1 -33 7 -10 13 -26 12 -34 0 -8 4 -18 10 -22 6 -5 6 -8 -2
-8 -7 0 -13 -6 -13 -14 0 -8 6 -17 13 -19 8 -4 9 -6 0 -6 -17 -1 -6 -53 15
-70 16 -13 16 -13 0 -8 -11 4 -15 2 -12 -7 3 -7 6 -31 8 -55 3 -43 15 -66 23
-44 4 10 8 9 19 -2 11 -11 21 -12 33 -5 10 5 21 7 23 4 9 -8 49 -13 44 -5 -3
4 8 8 24 7 17 -1 30 -5 30 -11 0 -5 4 -4 9 4 6 10 10 10 16 1 5 -8 13 -6 28 7
11 10 17 12 13 5 -5 -8 -1 -11 16 -8 13 3 27 5 31 5 5 1 5 6 2 11 -3 6 2 10
12 10 15 0 16 2 3 10 -12 7 -12 10 -1 10 7 0 11 6 7 15 -3 8 0 15 6 15 7 0 7
4 -1 14 -9 11 -9 15 1 19 9 4 10 6 1 6 -7 1 -10 8 -7 16 4 8 11 12 18 8 6 -4
5 1 -3 10 -10 13 -11 20 -2 31 7 8 10 26 7 40 -3 16 0 26 7 26 7 0 6 4 -3 10
-13 9 -13 11 0 20 13 9 13 10 0 10 -9 0 -11 3 -5 8 6 4 10 16 10 27 -1 11 4
23 10 27 6 5 5 8 -4 8 -9 0 -10 4 -4 13 9 11 11 19 14 60 0 6 -2 22 -5 34 -2
13 0 26 6 29 7 5 8 2 3 -7 -5 -8 -5 -11 0 -7 10 10 14 148 4 148 -5 0 -6 7 -3
15 4 8 1 15 -5 15 -6 0 -8 7 -4 15 3 9 -3 23 -13 31 -11 9 -12 12 -4 8 10 -5
8 1 -5 16 -11 13 -14 20 -7 16 6 -4 12 -2 12 3 0 6 -5 11 -11 11 -5 0 -7 5 -4
10 3 6 2 10 -4 10 -6 0 -8 7 -4 15 3 9 -2 22 -13 30 -15 11 -16 14 -4 15 12 0
12 2 2 9 -8 4 -13 11 -13 15 3 19 0 27 -7 22 -5 -3 -6 9 -4 26 3 20 1 29 -6
24 -7 -4 -10 9 -9 37 0 23 -3 48 -7 55 -4 7 -3 12 3 12 10 0 9 25 -2 36 -4 4
1 13 11 21 9 8 11 11 4 8 -11 -6 -13 3 -11 37 2 24 -1 49 -5 56 -4 7 -2 12 6
12 9 0 9 3 -2 10 -11 7 -11 10 -2 10 10 0 10 5 2 20 -6 11 -7 20 -2 20 5 0 6
18 2 40 -5 27 -4 40 4 40 6 0 4 5 -4 10 -13 9 -13 10 0 10 12 0 13 2 1 9 -11
7 -11 9 0 14 9 3 9 6 2 6 -8 1 -9 10 -3 30 4 16 6 32 3 34 -9 10 -10 57 0 57
5 0 4 7 -3 15 -10 12 -10 15 1 15 11 0 11 2 -1 10 -13 9 -13 10 0 10 11 1 10
4 -4 15 -14 11 -16 15 -5 15 9 0 14 11 14 30 0 17 -4 30 -8 30 -4 0 -3 8 2 19
6 10 8 21 5 23 -10 10 -9 128 1 132 6 3 1 5 -10 6 -19 1 -19 1 -2 11 10 6 14
15 10 22 -4 7 -6 25 -4 41 2 18 -1 26 -8 22 -7 -4 -8 -1 -5 8 3 9 10 13 15 10
10 -6 1 25 -13 43 -6 7 -4 14 3 19 8 5 9 3 4 -6 -5 -9 -4 -11 3 -6 7 4 9 14 4
24 -4 9 -7 26 -7 37 1 11 -3 25 -7 32 -6 7 -4 14 3 19 8 5 9 3 4 -6 -5 -9 -4
-11 4 -6 6 4 9 12 5 17 -3 6 -6 26 -6 45 0 19 -4 36 -9 39 -4 3 -6 12 -3 20 4
8 11 12 18 8 6 -4 3 4 -6 18 -16 24 -16 27 0 43 16 16 16 17 0 11 -13 -5 -15
-2 -11 15 5 17 8 19 15 8 7 -9 8 -8 4 5 -3 10 -6 21 -6 23 0 3 -6 2 -12 -2 -9
-5 -9 -2 1 9 11 14 11 17 0 17 -8 0 -6 5 6 13 14 11 15 16 5 22 -9 6 -11 4 -5
-5 5 -9 4 -11 -4 -6 -6 4 -8 13 -4 19 11 18 14 49 4 43 -9 -6 -7 37 4 53 3 6
1 11 -5 11 -7 0 -8 6 0 19 7 14 7 22 0 26 -8 5 -8 11 -1 19 7 9 7 16 0 23 -8
8 -8 17 0 32 8 15 9 21 1 21 -6 0 -8 5 -3 13 12 19 12 37 1 37 -6 0 -5 6 2 15
10 12 10 15 0 15 -10 0 -10 3 0 15 10 12 10 15 0 15 -10 0 -10 4 1 16 10 13
10 17 -2 25 -12 8 -12 10 1 19 13 9 13 11 0 20 -13 9 -13 10 0 10 13 0 13 1 0
10 -13 9 -13 10 0 10 13 0 13 1 0 10 -13 9 -13 10 0 10 13 0 13 1 0 10 -13 9
-13 10 0 10 13 0 13 1 0 10 -13 9 -13 10 0 10 12 0 12 2 1 9 -9 6 -10 11 -2
15 7 5 8 13 1 25 -6 12 -5 22 2 29 9 9 9 12 0 12 -7 0 -12 5 -12 11 0 5 4 8 8
5 5 -3 9 1 9 9 0 8 -3 15 -7 15 -3 0 -6 9 -7 20 -1 11 2 18 8 15 5 -4 5 3 0
18 -5 13 -5 30 -1 37 5 8 4 22 -1 31 -6 11 -5 20 1 24 6 3 6 15 0 30 -6 15 -6
27 1 30 5 4 6 12 2 18 -11 17 -11 29 0 51 6 12 6 16 -1 12 -12 -7 -10 32 1 51
4 6 3 15 -3 18 -8 5 -7 12 2 23 7 9 8 13 2 9 -8 -5 -11 5 -10 31 1 25 7 41 21
49 22 13 39 7 29 -9 -4 -7 -2 -8 5 -4 6 4 9 12 6 17 -4 5 -1 9 4 9 6 0 11 -5
11 -11 0 -8 5 -8 15 1 12 10 15 10 15 0 0 -10 3 -10 15 0 8 7 22 9 32 5 31
-13 54 -12 69 2 12 12 14 12 14 0 0 -7 7 -14 15 -14 8 0 12 4 9 9 -3 4 2 8 11
8 10 0 13 -5 9 -12 -6 -10 -5 -10 7 -1 12 10 18 10 29 0 10 -9 11 -9 6 1 -4 6
-2 12 3 12 6 0 11 -6 11 -12 0 -9 4 -8 10 2 8 13 10 13 10 1 0 -11 4 -10 13 4
11 14 16 15 22 5 6 -9 4 -11 -5 -5 -9 5 -11 4 -6 -4 5 -7 12 -9 19 -3 7 4 26
8 42 7 36 -1 60 20 60 54 0 14 4 32 8 39 5 7 4 12 -2 12 -13 0 -10 22 4 32 6
5 6 8 -2 8 -11 0 -12 24 -1 35 11 11 -16 64 -34 68 -11 3 -16 1 -12 -6 3 -7
-1 -4 -9 6 -9 10 -18 14 -21 8 -5 -7 -34 -8 -43 -1 -2 2 -6 3 -10 5 -5 1 -21
7 -36 13 -16 7 -33 12 -38 12 -5 0 -8 6 -7 13 2 6 -3 11 -11 9 -9 -2 -12 4 -8
17 3 11 -1 22 -9 25 -16 6 -10 46 8 58 11 6 11 8 0 8 -10 0 -10 3 0 14 7 8 15
12 17 11 2 -2 15 9 30 26 21 23 30 26 39 17 9 -9 12 -9 12 1 0 7 4 10 9 7 5
-4 12 0 14 6 4 10 6 10 6 0 1 -9 6 -10 20 -3 10 6 21 7 25 4 3 -3 6 -1 6 5 0
7 6 12 14 12 10 0 13 11 12 40 -1 23 1 43 6 46 5 3 5 10 2 16 -10 16 -11 100
-2 120 4 9 5 19 1 21 -10 6 -8 300 1 316 4 6 4 11 -1 11 -10 0 -9 232 1 248 4
7 4 12 -1 12 -4 0 -8 41 -8 90 0 50 4 90 8 90 5 0 5 5 1 11 -10 16 -11 339 -1
332 4 -2 1 12 -7 31 -8 20 -11 34 -6 31 5 -3 11 -1 15 5 3 5 2 10 -3 10 -5 0
-7 23 -5 51 3 39 1 49 -9 43 -10 -6 -10 -4 -2 7 6 8 10 26 9 42 -1 15 3 27 9
27 6 0 3 5 -7 11 -14 8 -16 14 -6 25 6 8 8 14 4 14 -4 0 -1 8 6 17 8 9 9 14 3
10 -13 -8 -14 40 -1 61 5 6 4 12 -2 12 -6 0 -9 23 -7 58 3 35 0 60 -8 64 -8 6
-8 8 0 8 8 0 10 20 8 61 -4 47 -2 59 8 53 10 -6 10 -4 2 7 -16 21 -23 55 -13
70 4 8 3 20 -4 28 -9 11 -9 13 0 8 8 -5 11 1 9 18 -1 14 -6 28 -9 32 -4 3 -2
12 3 18 7 9 7 21 0 39 -6 18 -6 25 0 21 6 -3 10 -2 10 4 0 5 -4 12 -10 16 -5
3 -7 12 -3 20 3 9 -1 15 -8 15 -11 0 -11 3 1 10 12 8 12 10 1 10 -11 0 -11 3
0 17 8 9 9 14 3 10 -7 -4 -14 3 -16 18 -3 16 -1 22 6 19 6 -3 3 1 -6 9 -10 8
-18 18 -18 23 0 17 -41 45 -53 37 -7 -4 -6 2 3 13 8 10 11 16 6 12 -4 -4 -19
5 -33 20 -14 15 -30 26 -37 24 -6 -2 -8 -1 -4 3 8 8 -10 29 -32 38 -11 4 -11
6 -2 6 10 1 10 4 -2 16 -8 8 -18 15 -23 15 -4 0 -16 11 -26 24 -12 16 -25 22
-38 19 -10 -3 -19 0 -19 6 0 5 -6 8 -14 5 -7 -3 -20 1 -27 8 -13 12 -29 17
-66 20 -7 1 -13 4 -13 7 0 4 -17 6 -37 6 -22 0 -44 6 -51 15 -8 8 -11 9 -7 3
4 -8 0 -13 -9 -13 -9 0 -16 5 -16 11 0 5 -6 7 -12 3 -18 -11 -48 -12 -54 -2
-3 5 -12 4 -20 -3 -8 -6 -14 -7 -14 -2 0 5 -7 10 -15 10 -9 0 -11 -4 -6 -11z"/>
<path d="M3870 14568 c-12 -13 -21 -18 -20 -13 5 24 -1 27 -16 9 -8 -10 -13
-13 -9 -6 4 7 0 12 -9 12 -9 0 -16 -5 -16 -11 0 -6 -7 -3 -16 5 -17 17 -28 21
-20 7 3 -5 -1 -12 -10 -15 -8 -3 -13 -2 -10 3 3 5 -1 12 -10 15 -8 3 -13 2
-10 -3 3 -5 -1 -12 -10 -15 -12 -4 -15 -2 -10 9 3 8 1 15 -4 15 -6 0 -10 -8
-10 -17 0 -15 -2 -16 -10 -3 -9 13 -10 13 -10 0 0 -13 -1 -13 -10 0 -5 8 -10
11 -10 6 0 -5 -7 -2 -17 5 -15 13 -15 12 -4 -9 11 -21 11 -23 -6 -14 -13 7
-24 6 -37 -4 -12 -8 -25 -10 -35 -5 -23 12 -41 3 -34 -17 3 -11 2 -13 -4 -6
-9 12 -104 14 -97 2 5 -7 -19 -13 -40 -9 -5 1 -18 -6 -29 -16 -11 -10 -17 -12
-13 -5 4 6 2 12 -3 12 -6 0 -11 -4 -11 -10 0 -5 -4 -10 -10 -10 -5 0 -7 8 -4
18 5 16 5 16 -6 0 -6 -10 -18 -18 -26 -18 -8 0 -12 -5 -9 -10 4 -7 -3 -9 -19
-6 -14 3 -26 0 -26 -5 0 -6 -5 -7 -11 -3 -6 3 -14 1 -18 -5 -4 -6 -20 -14 -35
-17 -20 -3 -25 -1 -20 7 4 8 3 9 -5 5 -6 -4 -9 -11 -6 -16 3 -5 1 -11 -5 -15
-5 -3 -10 -1 -10 6 0 7 -6 4 -14 -7 -8 -10 -18 -16 -22 -12 -4 4 -13 3 -21 -3
-9 -9 -17 -8 -28 1 -12 10 -14 8 -10 -9 2 -13 -1 -18 -10 -15 -7 3 -16 0 -20
-6 -5 -8 -11 -8 -21 1 -9 7 -14 8 -13 3 4 -21 -2 -28 -11 -14 -6 10 -10 11
-10 3 0 -7 -9 -13 -21 -13 -11 0 -17 -4 -14 -10 3 -5 -3 -10 -14 -10 -11 0
-22 -4 -25 -9 -3 -4 -26 -14 -51 -21 -25 -7 -45 -18 -45 -24 0 -6 -5 -4 -10 4
-9 15 -11 13 -14 -12 -1 -13 -5 -14 -47 -17 -12 0 -17 -5 -13 -12 4 -8 0 -8
-15 0 -18 10 -20 9 -14 -5 4 -11 3 -15 -5 -10 -6 3 -14 1 -17 -5 -4 -5 -14 -8
-22 -5 -11 5 -13 2 -9 -10 5 -13 4 -14 -7 -5 -11 8 -20 5 -42 -15 -15 -14 -25
-19 -22 -11 3 9 -2 21 -11 29 -15 11 -15 11 -5 -2 14 -18 1 -46 -16 -36 -7 5
-9 1 -5 -8 4 -10 1 -16 -7 -16 -7 0 -22 -8 -33 -17 -14 -12 -17 -13 -9 -3 10
13 8 16 -6 16 -10 0 -17 -6 -14 -12 2 -7 -1 -15 -8 -20 -8 -5 -10 -3 -4 7 7
11 6 12 -7 2 -8 -7 -19 -9 -23 -5 -5 4 -5 -1 -2 -11 4 -11 3 -16 -3 -12 -6 3
-10 0 -10 -7 0 -8 -3 -9 -8 -3 -4 6 -13 11 -21 13 -12 3 -12 0 -1 -12 7 -9 11
-16 9 -17 -33 -6 -38 -6 -33 4 3 7 -4 0 -16 -15 -12 -16 -27 -28 -33 -28 -8 0
-7 3 2 9 8 5 9 11 3 15 -6 3 -14 -3 -17 -15 -5 -14 -13 -19 -25 -16 -14 3 -17
1 -13 -11 5 -12 1 -14 -15 -10 -12 4 -20 2 -17 -2 9 -15 -15 -22 -31 -9 -12
10 -15 10 -12 -2 2 -8 -4 -13 -14 -13 -10 1 -15 -2 -12 -7 3 -5 0 -9 -7 -9 -7
0 -9 -3 -6 -6 4 -4 19 1 34 10 l28 17 -24 -21 c-14 -12 -33 -19 -43 -17 -9 3
-17 2 -16 -2 2 -18 -3 -31 -13 -31 -5 0 -7 6 -4 13 4 6 0 4 -8 -5 -8 -10 -26
-19 -40 -20 -14 -1 -23 -6 -21 -10 3 -5 10 -5 16 -2 7 5 8 2 4 -5 -5 -7 -14
-10 -22 -7 -9 4 -18 -3 -24 -17 -5 -12 -9 -16 -9 -9 -1 6 -6 12 -12 12 -5 0
-7 -4 -4 -10 3 -5 -1 -10 -10 -10 -9 0 -13 -4 -10 -10 3 -5 0 -10 -8 -10 -8 0
-20 -7 -27 -15 -7 -9 -27 -25 -44 -36 l-31 -21 33 29 c18 15 32 31 32 36 0 4
-8 -1 -18 -10 -35 -33 -60 -51 -65 -47 -2 2 -10 -4 -18 -13 -13 -16 -12 -17 3
-5 12 10 18 10 24 1 4 -7 3 -9 -4 -5 -6 3 -14 1 -17 -5 -4 -5 -14 -8 -22 -5
-8 3 -11 1 -8 -4 7 -12 -35 -31 -49 -22 -5 3 -6 0 -2 -7 4 -6 12 -8 18 -5 7 4
8 2 4 -5 -4 -6 -11 -9 -16 -6 -5 3 -20 -1 -33 -10 -13 -8 -26 -13 -29 -10 -2
3 -5 -2 -5 -9 0 -12 7 -11 31 5 l31 21 -25 -22 c-50 -43 -60 -50 -60 -43 0 4
-13 -7 -29 -24 -22 -25 -31 -29 -41 -20 -10 9 -11 9 -6 0 4 -7 2 -13 -4 -13
-6 0 -8 -5 -4 -12 5 -8 2 -9 -9 -5 -9 3 -19 1 -23 -5 -4 -7 -3 -8 4 -4 7 4 12
2 12 -3 0 -6 -7 -11 -15 -11 -9 0 -18 -7 -21 -15 -4 -8 -13 -15 -21 -15 -8 0
-11 -4 -8 -10 3 -5 -1 -10 -9 -10 -8 0 -20 -9 -27 -21 -6 -13 -17 -19 -28 -16
-10 2 -18 -1 -18 -9 0 -7 5 -10 10 -7 6 4 7 1 3 -6 -5 -7 -14 -10 -22 -7 -7 3
-16 0 -20 -6 -4 -7 -3 -8 4 -4 7 4 12 2 12 -3 0 -6 -5 -11 -10 -11 -6 0 -31
-21 -56 -47 -25 -27 -50 -47 -56 -45 -5 1 -7 -1 -4 -6 3 -5 -21 -34 -53 -65
-32 -30 -61 -63 -64 -71 -4 -9 -13 -16 -21 -16 -10 0 -13 -6 -9 -17 6 -16 4
-16 -9 -5 -14 11 -16 10 -11 -7 5 -19 -4 -26 -29 -22 -4 0 -5 -5 -3 -12 3 -6
-15 -33 -39 -59 -24 -26 -41 -50 -37 -54 3 -4 -2 -4 -11 -1 -13 4 -15 2 -11
-10 5 -13 2 -15 -11 -10 -9 4 -15 3 -11 -2 7 -13 -5 -42 -16 -35 -5 3 -6 -3
-2 -12 5 -14 3 -16 -12 -10 -11 4 -16 4 -12 0 4 -4 2 -13 -4 -21 -6 -7 -8 -13
-3 -13 4 0 -3 -11 -16 -25 -12 -13 -27 -22 -31 -19 -5 3 -6 -2 -3 -10 3 -9 1
-16 -6 -16 -6 0 -8 -5 -4 -12 5 -8 2 -9 -12 -4 -10 4 -15 4 -11 0 4 -4 1 -14
-6 -22 -10 -13 -9 -14 3 -7 13 8 13 7 0 -11 -21 -27 -32 -34 -45 -26 -5 3 -4
-2 4 -11 8 -11 9 -17 2 -17 -6 0 -18 -16 -26 -36 -9 -22 -20 -34 -28 -31 -9 3
-13 -3 -13 -17 1 -11 -4 -20 -11 -19 -7 2 -10 -4 -7 -12 4 -8 1 -15 -6 -15 -7
0 -10 -7 -6 -15 3 -10 -1 -15 -12 -15 -13 0 -14 -2 -4 -9 10 -6 8 -10 -8 -14
-15 -4 -21 -11 -17 -21 4 -9 -3 -25 -16 -37 -12 -12 -16 -19 -9 -14 11 6 11 3
1 -13 -7 -12 -16 -19 -20 -17 -3 3 -6 -3 -6 -13 1 -23 -34 -92 -44 -86 -4 2
-6 -5 -4 -17 3 -15 0 -19 -10 -16 -10 4 -12 -2 -10 -23 2 -16 0 -32 -5 -35 -5
-3 -7 -17 -4 -31 3 -14 1 -23 -4 -21 -4 3 -8 -3 -8 -13 0 -10 5 -16 10 -13 5
4 7 -3 4 -15 -4 -12 -1 -22 4 -22 7 0 6 -5 -1 -14 -9 -11 -9 -16 0 -22 8 -4 9
-3 5 4 -4 7 -3 12 3 12 10 0 27 -38 23 -52 -1 -4 5 -5 13 -2 9 4 15 0 15 -10
0 -9 6 -15 13 -13 6 1 11 -4 9 -12 -2 -11 0 -12 11 -3 15 13 27 7 23 -11 -2
-7 -1 -9 1 -4 3 4 9 7 14 7 6 0 8 -3 5 -8 -2 -4 11 -7 30 -6 19 1 34 -2 34 -7
0 -5 5 -9 11 -9 5 0 8 4 4 9 -9 16 15 24 31 10 12 -10 13 -9 8 4 -4 12 -1 15
15 12 15 -3 18 0 14 12 -4 11 -2 14 5 9 7 -4 15 -1 18 8 3 9 15 13 32 11 15
-2 21 -2 15 1 -7 3 -13 10 -13 15 0 6 4 8 9 5 4 -3 17 4 27 17 19 21 19 21 -1
7 -19 -13 -19 -13 -2 6 15 16 19 17 28 4 8 -12 9 -10 4 8 -4 13 -2 22 4 22 6
0 11 7 11 16 0 8 5 12 10 9 6 -3 10 -1 10 6 0 7 28 40 63 73 34 33 55 56 47
51 -13 -8 -13 -6 -1 8 7 9 17 14 22 11 5 -3 9 2 9 11 0 9 4 13 10 10 6 -4 7 1
3 11 -4 12 -3 15 5 10 7 -4 12 -2 12 4 0 14 105 120 119 120 6 0 10 3 9 8 -4
11 83 93 92 87 5 -3 12 0 16 6 4 8 3 9 -4 5 -16 -10 -15 2 2 19 10 11 16 11
26 2 9 -9 11 -9 6 0 -9 17 3 40 26 46 11 3 17 10 14 15 -3 5 1 15 9 22 13 11
15 10 10 -6 -3 -10 0 -7 7 7 7 14 19 24 26 21 7 -2 16 5 19 17 3 12 10 21 15
21 5 0 6 -5 2 -12 -5 -7 -3 -8 5 -4 7 5 10 11 7 14 -7 7 33 52 46 52 5 0 6 -6
2 -12 -4 -8 -3 -10 2 -5 9 8 10 12 13 38 0 6 8 9 15 6 11 -4 13 -1 9 11 -6 15
-5 15 10 3 15 -12 17 -12 10 4 -5 14 -3 17 10 12 12 -4 14 -2 10 11 -3 9 -3
14 2 10 4 -4 14 0 22 8 8 8 19 12 24 9 5 -4 6 2 2 11 -4 11 -2 15 4 11 6 -4
13 0 16 8 9 21 86 67 99 59 7 -4 8 -3 4 4 -6 10 21 32 36 29 3 -1 10 2 15 7 5
5 3 6 -4 2 -7 -4 -13 -3 -13 2 0 15 30 23 31 9 0 -7 4 -2 9 11 5 12 16 22 24
22 8 0 16 4 18 10 2 5 14 11 27 13 13 2 29 11 36 20 7 9 20 17 29 17 11 0 14
5 10 12 -5 8 -2 9 9 5 10 -4 17 -1 17 5 0 6 3 8 7 5 3 -4 12 2 19 12 15 21 58
37 48 18 -3 -7 1 -4 9 5 11 14 16 15 26 5 10 -9 11 -8 5 6 -5 13 -2 16 12 10
12 -4 15 -3 10 5 -6 10 4 14 30 11 3 0 12 8 20 18 7 10 14 14 14 9 0 -5 8 -2
17 5 9 8 14 9 10 3 -3 -6 0 -11 7 -11 8 0 12 6 9 14 -3 7 -1 14 3 14 5 1 19 3
31 4 13 1 29 8 38 15 8 7 22 10 30 6 8 -3 15 -1 15 5 0 6 4 8 9 5 5 -4 12 0
14 6 4 10 8 9 16 -2 9 -13 11 -12 11 3 0 10 4 16 9 12 5 -3 12 -1 16 5 3 5 12
10 18 10 7 0 6 -4 -3 -10 -9 -6 -10 -10 -3 -10 6 0 15 5 19 11 3 6 14 9 24 6
12 -3 17 0 14 7 -6 15 26 17 44 3 9 -7 11 -5 6 8 -5 13 -4 16 4 11 6 -4 21 -2
32 4 16 8 25 8 35 0 9 -8 16 -7 27 3 7 7 23 13 35 12 12 -1 20 2 17 7 -8 13
10 10 25 -4 11 -10 13 -10 7 0 -4 6 -4 12 1 13 4 0 16 2 26 4 9 2 25 -4 34
-13 16 -16 16 -16 10 2 -5 14 -4 17 8 12 8 -3 15 0 15 7 0 8 3 8 9 -2 7 -11 9
-11 14 0 3 9 6 7 7 -6 1 -18 1 -19 11 -2 5 9 15 17 22 17 7 0 6 -4 -3 -10 -9
-6 -10 -10 -3 -10 6 0 15 5 19 12 5 7 10 4 16 -11 8 -22 8 -22 32 -4 20 16 39
19 89 14 5 -1 5 -7 1 -13 -6 -10 -4 -10 7 -2 19 16 67 9 92 -13 19 -16 20 -16
8 -1 -12 16 -11 17 18 7 19 -7 28 -16 25 -22 -5 -9 -3 -9 6 0 16 14 63 -4 53
-21 -4 -6 2 -4 12 4 11 9 16 10 11 3 -5 -9 0 -13 14 -13 12 0 18 -4 15 -11 -4
-6 0 -9 11 -7 12 2 18 -2 16 -10 -1 -8 2 -11 7 -8 5 4 12 2 16 -4 4 -6 10 -8
14 -5 5 2 17 -5 27 -18 l19 -22 -25 20 -25 20 24 -27 c13 -15 28 -25 32 -22
11 6 30 -31 21 -41 -4 -4 2 -5 13 -3 15 2 20 -2 19 -19 0 -17 3 -20 12 -12 9
7 16 2 25 -20 7 -16 17 -27 21 -25 4 3 8 0 8 -5 0 -6 0 -13 0 -16 0 -3 9 -14
20 -25 12 -12 18 -26 14 -32 -4 -7 -3 -8 4 -4 7 4 14 -3 18 -19 3 -14 9 -25
13 -25 4 0 15 -16 24 -35 15 -32 15 -34 -1 -29 -9 2 -7 -1 6 -7 19 -11 24 -21
21 -45 0 -4 3 -10 8 -13 5 -3 14 -19 21 -34 10 -23 10 -27 0 -22 -7 4 -5 0 4
-8 10 -8 15 -17 11 -20 -3 -4 0 -7 8 -7 11 0 11 -2 -1 -10 -12 -8 -12 -10 -1
-10 8 0 11 -7 8 -20 -3 -11 0 -26 7 -33 7 -6 15 -22 18 -34 4 -17 2 -20 -11
-17 -9 3 -6 -1 7 -7 12 -7 22 -18 22 -26 0 -8 -4 -11 -10 -8 -5 3 -10 1 -10
-4 0 -6 7 -11 16 -11 8 0 12 -4 9 -10 -3 -5 0 -10 7 -11 7 0 4 -4 -7 -9 l-20
-9 20 0 c17 -1 17 -3 5 -11 -13 -9 -13 -10 0 -10 12 0 13 -2 1 -9 -11 -7 -11
-9 0 -13 12 -4 12 -7 0 -21 -7 -10 -9 -17 -4 -17 5 0 10 -7 10 -15 0 -8 -5
-15 -11 -15 -6 0 -4 -5 4 -10 13 -9 13 -10 0 -10 -9 0 -11 -3 -5 -8 6 -4 11
-16 11 -27 0 -11 -5 -23 -11 -27 -6 -5 -5 -8 4 -8 11 0 11 -3 1 -15 -9 -10 -9
-15 -1 -15 13 0 10 -22 -4 -32 -6 -5 -5 -8 3 -8 10 0 10 -5 2 -20 -7 -14 -7
-20 0 -20 12 0 9 -22 -5 -32 -6 -5 -5 -8 3 -8 10 0 10 -5 2 -20 -7 -14 -7 -20
0 -20 12 0 9 -22 -5 -32 -6 -5 -5 -8 3 -8 10 0 10 -5 2 -20 -7 -14 -7 -20 0
-20 12 0 9 -22 -5 -32 -6 -5 -5 -8 3 -8 10 0 10 -5 2 -20 -7 -14 -7 -20 0 -20
12 0 9 -22 -5 -32 -6 -5 -5 -8 3 -8 10 0 10 -5 2 -20 -7 -14 -7 -20 0 -20 12
0 9 -22 -5 -32 -6 -5 -5 -8 3 -8 10 0 10 -5 2 -20 -7 -14 -7 -20 0 -20 12 0 9
-22 -5 -32 -6 -5 -5 -8 3 -8 10 0 10 -5 2 -20 -7 -14 -7 -20 0 -20 12 0 9 -22
-5 -32 -6 -5 -5 -8 3 -8 10 0 10 -5 2 -20 -7 -14 -7 -20 0 -20 12 0 9 -22 -5
-32 -6 -5 -5 -8 3 -8 10 0 10 -5 2 -20 -7 -14 -7 -20 0 -20 12 0 9 -22 -5 -32
-6 -5 -5 -8 3 -8 10 0 10 -5 2 -20 -7 -14 -7 -20 0 -20 12 0 9 -22 -5 -32 -6
-5 -5 -8 3 -8 10 0 10 -5 2 -20 -7 -14 -7 -20 0 -20 12 0 9 -22 -5 -32 -6 -5
-6 -8 2 -8 6 0 9 -9 6 -20 -3 -11 -10 -17 -16 -13 -6 3 -7 1 -3 -6 4 -6 12 -9
17 -6 5 4 9 0 9 -9 0 -8 -6 -17 -12 -19 -10 -4 -9 -6 1 -6 11 -1 11 -4 1 -16
-10 -12 -10 -15 1 -15 11 0 11 -2 -1 -10 -10 -6 -11 -10 -2 -10 6 0 12 -5 12
-11 0 -5 -6 -7 -12 -3 -9 5 -9 2 1 -9 11 -14 11 -17 0 -17 -12 0 -12 -2 0 -9
11 -7 11 -9 0 -14 -12 -5 -12 -6 0 -6 11 -1 11 -4 1 -16 -10 -12 -10 -15 1
-15 11 0 11 -2 -1 -10 -8 -5 -10 -10 -4 -10 13 0 12 -52 -1 -62 -7 -5 -6 -8 0
-8 12 0 13 -55 2 -66 -4 -4 -2 -14 5 -21 9 -11 9 -17 -3 -24 -11 -7 -11 -9 0
-9 11 0 11 -3 1 -15 -10 -12 -10 -15 1 -15 11 0 11 -2 -1 -10 -9 -6 -11 -10
-3 -10 7 0 10 -7 7 -15 -4 -8 -11 -12 -17 -8 -6 3 -7 1 -3 -6 4 -6 12 -9 17
-6 5 4 9 0 9 -9 0 -8 -6 -17 -12 -19 -10 -4 -9 -6 1 -6 11 -1 11 -4 1 -16 -10
-12 -10 -15 1 -15 11 0 11 -2 -1 -10 -10 -6 -11 -10 -2 -10 6 0 12 -5 12 -11
0 -5 -6 -7 -12 -3 -9 5 -9 2 1 -9 11 -14 11 -17 0 -17 -12 0 -12 -2 0 -9 11
-7 11 -9 0 -14 -12 -5 -12 -6 0 -6 11 -1 11 -4 1 -16 -10 -12 -10 -15 1 -15
11 0 11 -2 -1 -10 -8 -5 -10 -10 -4 -10 13 0 12 -52 -1 -62 -7 -5 -6 -8 0 -8
12 0 13 -55 2 -66 -4 -4 -2 -14 5 -21 9 -11 9 -17 -3 -24 -11 -7 -11 -9 0 -9
11 0 11 -3 1 -15 -10 -12 -10 -15 1 -15 11 0 11 -2 -1 -10 -9 -6 -11 -10 -3
-10 7 0 10 -7 7 -15 -4 -8 -11 -12 -17 -8 -6 3 -7 1 -3 -6 4 -6 12 -9 17 -6 5
4 9 0 9 -9 0 -8 -6 -17 -12 -19 -10 -4 -9 -6 1 -6 11 -1 11 -4 1 -16 -10 -12
-10 -15 1 -15 11 0 11 -2 -1 -10 -10 -6 -11 -10 -2 -10 6 0 12 -5 12 -11 0 -5
-6 -7 -12 -3 -9 5 -9 2 1 -9 11 -14 11 -17 0 -17 -12 0 -12 -2 0 -9 11 -7 11
-9 0 -14 -12 -5 -12 -6 0 -6 11 -1 11 -4 1 -16 -10 -12 -10 -15 1 -15 11 0 11
-2 -1 -10 -8 -5 -10 -10 -4 -10 13 0 12 -52 -1 -62 -6 -5 -6 -8 2 -8 6 0 9 -9
6 -20 -3 -11 -10 -17 -16 -13 -6 3 -7 1 -3 -6 4 -6 12 -9 17 -6 5 4 9 0 9 -9
0 -8 -6 -17 -12 -19 -10 -4 -9 -6 1 -6 11 -1 11 -4 1 -16 -10 -12 -10 -15 1
-15 11 0 11 -2 -1 -10 -10 -6 -11 -10 -2 -10 6 0 12 -5 12 -11 0 -5 -6 -7 -12
-3 -9 5 -9 2 1 -9 11 -14 11 -17 0 -17 -12 0 -12 -2 0 -9 11 -7 11 -9 0 -14
-12 -5 -12 -6 0 -6 11 -1 11 -4 1 -16 -10 -12 -10 -15 1 -15 11 0 11 -2 -1
-10 -8 -5 -10 -10 -4 -10 13 0 12 -52 -1 -62 -7 -5 -6 -8 0 -8 12 0 13 -55 2
-66 -4 -4 -2 -14 5 -21 9 -11 9 -17 -3 -24 -11 -7 -11 -9 0 -9 11 0 11 -3 1
-15 -10 -12 -10 -15 1 -15 11 0 11 -2 -1 -10 -9 -6 -11 -10 -3 -10 7 0 10 -7
7 -15 -4 -8 -11 -12 -17 -8 -6 3 -7 1 -3 -6 4 -6 12 -9 17 -6 5 4 9 0 9 -9 0
-8 -6 -17 -12 -19 -10 -4 -9 -6 1 -6 11 -1 11 -4 1 -16 -10 -12 -10 -15 1 -15
11 0 11 -2 -1 -10 -10 -6 -11 -10 -2 -10 6 0 12 -5 12 -11 0 -5 -6 -7 -12 -3
-9 5 -9 2 1 -9 11 -14 11 -17 0 -17 -12 0 -12 -2 0 -9 11 -7 11 -9 0 -14 -12
-5 -12 -6 0 -6 11 -1 11 -4 1 -16 -10 -12 -10 -15 1 -15 11 0 11 -2 -1 -10 -8
-5 -10 -10 -4 -10 13 0 12 -52 -1 -62 -7 -5 -6 -8 0 -8 12 0 13 -55 2 -66 -4
-4 -2 -14 5 -21 9 -11 9 -17 -3 -24 -11 -7 -11 -9 0 -9 11 0 11 -3 1 -15 -10
-12 -10 -15 1 -15 11 0 11 -2 -1 -10 -9 -6 -11 -10 -3 -10 7 0 10 -7 7 -15 -4
-8 -11 -12 -17 -8 -6 3 -7 1 -3 -6 4 -6 12 -9 17 -6 5 4 9 0 9 -9 0 -8 -6 -17
-12 -19 -10 -4 -9 -6 1 -6 11 -1 11 -4 1 -16 -10 -12 -10 -15 1 -15 11 0 11
-2 -1 -10 -10 -6 -11 -10 -2 -10 6 0 12 -5 12 -11 0 -5 -6 -7 -12 -3 -9 5 -9
2 1 -9 11 -14 11 -17 0 -17 -12 0 -12 -2 0 -9 11 -7 11 -9 0 -14 -12 -5 -12
-6 0 -6 11 -1 11 -4 1 -16 -10 -12 -10 -15 1 -15 11 0 11 -2 -1 -10 -8 -5 -10
-10 -4 -10 13 0 12 -52 -1 -62 -7 -5 -6 -8 0 -8 12 0 13 -55 2 -66 -4 -4 -2
-14 5 -21 9 -11 9 -17 -3 -24 -11 -7 -11 -9 0 -9 11 0 11 -3 1 -15 -10 -12
-10 -15 1 -15 11 0 11 -2 -1 -10 -9 -6 -11 -10 -3 -10 7 0 10 -7 7 -15 -4 -8
-11 -12 -17 -8 -6 3 -7 1 -3 -6 4 -6 12 -9 17 -6 5 4 9 0 9 -9 0 -8 -6 -17
-12 -19 -10 -4 -9 -6 1 -6 11 -1 11 -4 1 -16 -10 -12 -10 -15 1 -15 11 0 11
-2 -1 -10 -10 -6 -11 -10 -2 -10 6 0 12 -5 12 -11 0 -5 -6 -7 -12 -3 -9 5 -9
2 1 -9 11 -14 11 -17 0 -17 -12 0 -12 -2 0 -9 11 -7 11 -9 0 -14 -12 -5 -12
-6 0 -6 11 -1 11 -4 1 -16 -10 -12 -10 -15 1 -15 11 0 11 -2 -1 -10 -8 -5 -10
-10 -4 -10 13 0 12 -52 -1 -62 -7 -5 -6 -8 0 -8 12 0 13 -55 2 -66 -4 -4 -2
-14 5 -21 9 -11 9 -17 -3 -24 -11 -7 -11 -9 0 -9 11 0 11 -3 1 -15 -10 -12
-10 -15 1 -15 11 0 11 -2 -1 -10 -9 -6 -11 -10 -3 -10 7 0 10 -7 7 -15 -4 -8
-11 -12 -17 -8 -6 3 -7 1 -3 -6 4 -6 12 -9 17 -6 5 4 9 0 9 -9 0 -8 -6 -17
-12 -19 -10 -4 -9 -6 1 -6 11 -1 11 -4 1 -16 -10 -12 -10 -15 1 -15 11 0 11
-2 -1 -10 -10 -6 -11 -10 -2 -10 6 0 12 -5 12 -11 0 -5 -6 -7 -12 -3 -9 5 -9
2 1 -9 11 -14 11 -17 0 -17 -12 0 -12 -2 0 -9 11 -7 11 -9 0 -14 -12 -5 -12
-6 0 -6 11 -1 11 -4 1 -16 -10 -12 -10 -15 1 -15 11 0 11 -2 -1 -10 -8 -5 -10
-10 -4 -10 13 0 12 -52 -1 -62 -7 -5 -6 -8 0 -8 12 0 13 -55 2 -66 -4 -4 -2
-14 5 -21 9 -11 9 -17 -3 -24 -11 -7 -11 -9 0 -9 11 0 11 -3 1 -15 -10 -12
-10 -15 1 -15 11 0 11 -2 -1 -10 -9 -6 -11 -10 -3 -10 7 0 10 -7 7 -15 -4 -8
-11 -12 -17 -8 -6 3 -7 1 -3 -6 4 -6 12 -9 17 -6 5 4 9 0 9 -9 0 -8 -6 -17
-12 -19 -10 -4 -9 -6 1 -6 11 -1 11 -4 1 -16 -10 -12 -10 -15 1 -15 11 0 11
-2 -1 -10 -10 -6 -11 -10 -2 -10 6 0 12 -5 12 -11 0 -5 -6 -7 -12 -3 -9 5 -9
2 1 -9 11 -14 11 -17 0 -17 -12 0 -12 -2 0 -9 11 -7 11 -9 0 -14 -12 -5 -12
-6 0 -6 11 -1 11 -4 1 -16 -10 -12 -10 -15 1 -15 11 0 11 -2 -1 -10 -8 -5 -10
-10 -4 -10 13 0 12 -52 -1 -62 -7 -5 -6 -8 0 -8 12 0 13 -55 2 -66 -4 -4 -2
-14 5 -21 9 -11 9 -17 -3 -24 -11 -7 -11 -9 0 -9 11 0 11 -3 1 -15 -10 -12
-10 -15 1 -15 11 0 11 -2 -1 -10 -9 -6 -11 -10 -3 -10 7 0 10 -7 7 -15 -4 -8
-11 -12 -17 -8 -6 3 -7 1 -3 -6 4 -6 12 -9 17 -6 5 4 9 0 9 -9 0 -8 -6 -17
-12 -19 -10 -4 -9 -6 1 -6 11 -1 11 -4 1 -16 -10 -12 -10 -15 1 -15 11 0 11
-2 -1 -10 -10 -6 -11 -10 -2 -10 6 0 12 -5 12 -11 0 -5 -6 -7 -12 -3 -9 5 -9
2 1 -9 11 -14 11 -17 0 -17 -12 0 -12 -2 0 -9 11 -7 11 -9 0 -14 -12 -5 -12
-6 0 -6 11 -1 11 -4 1 -16 -10 -12 -10 -15 1 -15 11 0 11 -2 -1 -10 -8 -5 -10
-10 -4 -10 13 0 12 -52 -1 -62 -7 -5 -6 -8 0 -8 12 0 13 -55 2 -66 -4 -4 -2
-14 5 -21 9 -11 9 -17 -3 -24 -11 -7 -11 -9 0 -9 11 0 11 -3 1 -15 -10 -12
-10 -15 1 -15 11 0 11 -2 -1 -10 -9 -6 -11 -10 -3 -10 7 0 10 -7 7 -15 -4 -8
-11 -12 -17 -8 -6 3 -7 1 -3 -6 4 -6 12 -9 17 -6 5 4 9 0 9 -9 0 -8 -6 -17
-12 -19 -10 -4 -9 -6 1 -6 11 -1 11 -4 1 -16 -10 -12 -10 -15 1 -15 11 0 11
-2 -1 -10 -10 -6 -11 -10 -2 -10 6 0 12 -5 12 -11 0 -5 -6 -7 -12 -3 -9 5 -9
2 1 -9 11 -14 11 -17 0 -17 -12 0 -12 -2 0 -9 11 -7 11 -9 0 -14 -12 -5 -12
-6 0 -6 11 -1 11 -4 1 -16 -10 -12 -10 -15 1 -15 11 0 11 -2 -1 -10 -8 -5 -10
-10 -4 -10 13 0 12 -52 -1 -62 -7 -5 -6 -8 0 -8 12 0 13 -55 2 -66 -4 -4 -2
-14 5 -21 9 -11 9 -17 -3 -24 -11 -7 -11 -9 0 -9 11 0 11 -3 1 -15 -10 -12
-10 -15 1 -15 11 0 11 -2 -1 -10 -8 -5 -10 -10 -4 -10 12 0 13 -45 1 -56 -4
-4 -2 -14 5 -21 9 -11 9 -17 -3 -24 -11 -7 -11 -9 0 -9 11 0 11 -3 1 -15 -10
-12 -10 -15 1 -15 11 0 11 -2 -1 -10 -9 -6 -11 -10 -3 -10 7 0 10 -7 7 -15 -4
-8 -11 -12 -17 -8 -6 3 -7 1 -3 -6 4 -6 12 -9 17 -6 5 4 9 0 9 -9 0 -8 -6 -17
-12 -19 -10 -4 -9 -6 1 -6 11 -1 11 -4 1 -16 -10 -12 -10 -15 1 -15 11 0 11
-2 -1 -10 -10 -6 -11 -10 -2 -10 6 0 12 -5 12 -11 0 -5 -6 -7 -12 -3 -9 5 -9
2 1 -9 11 -14 11 -17 0 -17 -12 0 -12 -2 0 -9 11 -7 11 -9 0 -14 -12 -5 -12
-6 0 -6 11 -1 11 -4 1 -16 -10 -12 -10 -15 1 -15 11 0 11 -2 -1 -10 -8 -5 -10
-10 -4 -10 13 0 12 -52 -1 -62 -7 -5 -6 -8 0 -8 12 0 13 -55 2 -66 -4 -4 -2
-14 5 -21 9 -11 9 -17 -3 -24 -11 -7 -11 -9 0 -9 11 0 11 -3 1 -15 -10 -12
-10 -15 1 -15 11 0 11 -2 -1 -10 -9 -6 -11 -10 -3 -10 7 0 10 -7 7 -15 -4 -8
-11 -12 -17 -8 -6 3 -7 1 -3 -6 4 -6 12 -9 17 -6 5 4 9 0 9 -9 0 -8 -6 -17
-12 -19 -10 -4 -9 -6 1 -6 11 -1 11 -4 1 -16 -10 -12 -10 -15 1 -15 11 0 11
-2 -1 -10 -10 -6 -11 -10 -2 -10 6 0 12 -5 12 -11 0 -5 -6 -7 -12 -3 -9 5 -9
2 1 -9 11 -14 11 -17 0 -17 -12 0 -12 -2 0 -9 11 -7 11 -9 0 -14 -12 -5 -12
-6 0 -6 11 -1 11 -4 1 -16 -10 -12 -10 -15 1 -15 11 0 11 -2 -1 -10 -8 -5 -10
-10 -4 -10 13 0 12 -52 -1 -62 -7 -5 -6 -8 0 -8 12 0 13 -55 2 -66 -4 -4 -2
-14 5 -21 9 -11 9 -17 -3 -24 -11 -7 -11 -9 0 -9 11 0 11 -3 1 -15 -10 -12
-10 -15 1 -15 11 0 11 -2 -1 -10 -9 -6 -11 -10 -3 -10 7 0 10 -7 7 -15 -4 -8
-11 -12 -17 -8 -6 3 -7 1 -3 -6 4 -6 12 -9 17 -6 5 4 9 0 9 -9 0 -8 -6 -17
-12 -19 -10 -4 -9 -6 1 -6 11 -1 11 -4 1 -16 -10 -12 -10 -15 1 -15 11 0 11
-2 -1 -10 -10 -6 -11 -10 -2 -10 6 0 12 -5 12 -11 0 -5 -6 -7 -12 -3 -9 5 -9
2 1 -9 11 -14 11 -17 0 -17 -12 0 -12 -2 0 -9 11 -7 11 -9 0 -14 -12 -5 -12
-6 0 -6 11 -1 11 -4 1 -16 -10 -12 -10 -15 1 -15 11 0 11 -2 -1 -10 -8 -5 -10
-10 -4 -10 13 0 12 -52 -1 -62 -7 -5 -6 -8 0 -8 12 0 13 -55 2 -66 -4 -4 -2
-14 5 -21 9 -11 9 -17 -3 -24 -11 -7 -11 -9 0 -9 11 0 11 -3 1 -15 -10 -12
-10 -15 1 -15 11 0 11 -2 -1 -10 -9 -6 -11 -10 -3 -10 7 0 10 -7 7 -15 -4 -8
-11 -12 -17 -8 -6 3 -7 1 -3 -6 4 -6 12 -9 17 -6 5 4 9 0 9 -9 0 -8 -6 -17
-12 -19 -10 -4 -9 -6 1 -6 11 -1 11 -4 1 -16 -10 -12 -10 -15 1 -15 11 0 11
-2 -1 -10 -10 -6 -11 -10 -2 -10 6 0 12 -5 12 -11 0 -5 -6 -7 -12 -3 -9 5 -9
2 1 -9 11 -14 11 -17 0 -17 -12 0 -12 -2 0 -9 11 -7 11 -9 0 -14 -12 -5 -12
-6 0 -6 11 -1 11 -4 1 -16 -10 -12 -10 -15 1 -15 11 0 11 -2 -1 -10 -8 -5 -10
-10 -4 -10 13 0 12 -52 -1 -62 -7 -5 -6 -8 0 -8 12 0 13 -55 2 -66 -4 -4 -2
-14 5 -21 9 -11 9 -17 -3 -24 -11 -7 -11 -9 0 -9 11 0 11 -3 1 -15 -10 -12
-10 -15 1 -15 11 0 11 -2 -1 -10 -9 -6 -11 -10 -3 -10 7 0 10 -7 7 -15 -4 -8
-11 -12 -17 -8 -6 3 -7 1 -3 -6 4 -6 12 -9 17 -6 5 4 9 0 9 -9 0 -8 -6 -17
-12 -19 -10 -4 -9 -6 1 -6 11 -1 11 -4 1 -16 -10 -12 -10 -15 1 -15 11 0 11
-2 -1 -10 -10 -6 -11 -10 -2 -10 6 0 12 -5 12 -11 0 -5 -6 -7 -12 -3 -9 5 -9
2 1 -9 11 -14 11 -17 0 -17 -12 0 -12 -2 0 -9 11 -7 11 -9 0 -14 -12 -5 -12
-6 0 -6 11 -1 11 -4 1 -16 -10 -12 -10 -15 1 -15 11 0 11 -2 -1 -10 -8 -5 -10
-10 -4 -10 13 0 12 -52 -1 -62 -7 -5 -6 -8 0 -8 12 0 13 -55 2 -66 -4 -4 -2
-14 5 -21 9 -11 9 -17 -3 -24 -11 -7 -11 -9 0 -9 11 0 11 -3 1 -15 -10 -12
-10 -15 1 -15 11 0 11 -2 -1 -10 -9 -6 -11 -10 -3 -10 7 0 10 -7 7 -15 -4 -8
-11 -12 -17 -8 -6 3 -7 1 -3 -6 4 -6 12 -9 17 -6 5 4 9 0 9 -9 0 -8 -6 -17
-12 -19 -10 -4 -9 -6 1 -6 11 -1 11 -4 1 -16 -10 -12 -10 -15 1 -15 11 0 11
-2 -1 -10 -10 -6 -11 -10 -2 -10 6 0 12 -5 12 -11 0 -5 -6 -7 -12 -3 -9 5 -9
2 1 -9 9 -11 10 -17 2 -17 -6 0 -11 -5 -11 -11 0 -5 6 -7 13 -3 6 4 9 4 5 0
-4 -5 -2 -20 3 -34 9 -23 8 -24 -8 -11 -17 13 -17 13 0 -7 9 -11 14 -24 10
-27 -3 -4 -1 -7 7 -7 10 0 10 -4 -1 -17 -8 -9 -9 -14 -3 -10 7 4 21 -13 35
-41 13 -26 26 -49 30 -52 3 -3 8 -13 12 -22 3 -10 14 -18 23 -18 10 0 14 -5
11 -14 -4 -11 -1 -13 10 -9 11 4 14 3 9 -6 -4 -6 -4 -11 1 -10 27 5 45 -2 40
-15 -9 -23 855 -23 877 -1 17 18 30 20 20 3 -4 -7 -3 -8 4 -4 7 4 12 14 12 22
0 8 3 13 8 11 7 -4 85 71 91 88 2 6 7 9 13 7 5 -1 7 2 3 8 -8 13 13 52 25 45
5 -3 12 0 16 6 4 7 3 9 -4 5 -6 -3 -13 -2 -17 4 -3 5 0 10 7 10 9 0 9 3 -2 10
-11 7 -11 10 -2 10 7 0 10 5 7 10 -3 6 -2 10 4 10 5 0 7 14 4 31 -2 17 -1 29
4 26 5 -3 9 3 9 13 0 10 -4 16 -8 14 -4 -3 -8 0 -8 5 0 6 6 11 13 11 9 0 8 3
-2 9 -9 6 -10 11 -2 15 6 4 11 13 11 19 0 7 -4 6 -10 -3 -8 -13 -10 -13 -10 1
0 9 3 19 7 23 10 9 13 37 4 31 -11 -6 -8 67 3 84 6 10 5 12 -2 7 -7 -4 -12 -2
-12 3 0 6 6 11 13 11 8 0 7 4 -3 11 -11 8 -12 12 -2 16 6 2 12 9 12 14 0 6 -4
7 -10 4 -5 -3 -10 -2 -10 4 0 5 5 13 10 16 6 4 7 12 3 18 -12 20 -12 41 0 56
9 12 9 13 0 7 -7 -4 -13 -2 -13 3 0 6 6 11 13 11 8 0 7 4 -3 11 -11 8 -12 12
-2 16 6 2 12 9 12 14 0 6 -5 7 -10 4 -6 -3 -10 -2 -10 4 0 5 5 13 10 16 6 4 7
12 3 18 -12 20 -12 41 0 56 9 12 9 13 0 7 -7 -4 -13 -2 -13 3 0 6 6 11 13 11
8 0 7 4 -3 11 -11 8 -12 12 -2 16 6 2 12 9 12 14 0 6 -4 7 -10 4 -5 -3 -10 -2
-10 4 0 5 5 13 10 16 6 4 7 12 3 18 -12 20 -12 41 0 56 9 12 9 13 0 7 -7 -4
-13 -2 -13 3 0 6 6 11 13 11 8 0 7 4 -3 11 -11 8 -12 12 -2 16 6 2 12 9 12 14
0 6 -4 7 -10 4 -5 -3 -10 -2 -10 4 0 5 5 13 10 16 6 4 7 12 3 18 -12 20 -12
41 0 56 9 12 9 13 0 7 -7 -4 -13 -2 -13 3 0 6 6 11 13 11 8 0 7 4 -3 11 -11 8
-12 12 -2 16 6 2 12 9 12 14 0 6 -5 7 -10 4 -6 -3 -10 -2 -10 4 0 5 5 13 10
16 6 4 7 12 3 18 -12 20 -12 41 0 56 9 12 9 13 0 7 -7 -4 -13 -2 -13 3 0 6 6
11 13 11 8 0 7 4 -3 11 -11 8 -12 12 -2 16 6 2 12 9 12 14 0 6 -4 7 -10 4 -6
-3 -10 -2 -10 4 0 5 5 13 10 16 6 4 7 12 3 18 -12 20 -12 41 0 56 9 12 9 13 0
7 -7 -4 -13 -2 -13 3 0 6 6 11 13 11 8 0 7 4 -3 11 -11 8 -12 12 -2 16 6 2 12
9 12 14 0 6 -5 7 -10 4 -6 -3 -10 -2 -10 4 0 5 5 13 10 16 6 4 7 12 3 18 -12
20 -12 41 0 56 9 12 9 13 0 7 -7 -4 -13 -2 -13 3 0 6 6 11 13 11 8 0 7 4 -3
11 -11 8 -12 12 -2 16 6 2 12 9 12 14 0 6 -4 7 -10 4 -5 -3 -10 -2 -10 4 0 5
5 13 10 16 6 4 7 12 3 18 -12 20 -12 41 0 56 9 12 9 13 0 7 -7 -4 -13 -2 -13
3 0 6 6 11 13 11 8 0 7 4 -3 11 -11 8 -12 12 -2 16 6 2 12 9 12 14 0 6 -4 7
-10 4 -6 -3 -10 -2 -10 4 0 5 5 13 10 16 6 4 7 12 3 18 -12 20 -12 41 0 56 9
12 9 13 0 7 -7 -4 -13 -2 -13 3 0 6 6 11 13 11 8 0 7 4 -3 11 -11 8 -12 12 -2
16 6 2 12 9 12 14 0 6 -4 7 -10 4 -5 -3 -10 -2 -10 4 0 5 5 13 10 16 6 4 7 12
3 18 -12 20 -12 41 0 56 9 12 9 13 0 7 -7 -4 -13 -2 -13 3 0 6 6 11 13 11 8 0
7 4 -3 11 -11 8 -12 12 -2 16 6 2 12 9 12 14 0 6 -4 7 -10 4 -5 -3 -10 -2 -10
4 0 5 5 13 10 16 6 4 7 12 3 18 -12 20 -12 41 0 56 9 12 9 13 0 7 -7 -4 -13
-2 -13 3 0 6 6 11 13 11 8 0 7 4 -3 11 -11 8 -12 12 -2 16 6 2 12 9 12 14 0 6
-4 7 -10 4 -5 -3 -10 -2 -10 4 0 5 5 13 10 16 6 4 7 12 3 18 -12 20 -12 41 0
56 9 12 9 13 -1 7 -6 -4 -12 -2 -12 3 0 6 6 11 13 11 8 0 7 4 -3 11 -11 8 -12
12 -2 16 6 2 12 9 12 14 0 6 -5 7 -10 4 -6 -3 -10 -2 -10 4 0 5 5 13 10 16 6
4 7 12 3 18 -12 20 -12 41 0 56 9 12 9 13 0 7 -7 -4 -13 -2 -13 3 0 6 6 11 13
11 8 0 7 4 -3 11 -11 8 -12 12 -2 16 6 2 12 9 12 14 0 6 -4 7 -10 4 -6 -3 -10
-2 -10 4 0 5 5 13 10 16 6 4 7 12 3 18 -12 20 -12 41 0 56 9 12 9 13 0 7 -7
-4 -13 -2 -13 3 0 6 6 11 13 11 8 0 7 4 -3 11 -11 8 -12 12 -2 16 6 2 12 9 12
14 0 6 -4 7 -10 4 -5 -3 -10 -2 -10 4 0 5 5 13 10 16 6 4 7 12 3 18 -12 20
-12 41 0 56 9 12 9 13 0 7 -7 -4 -13 -2 -13 3 0 6 6 11 13 11 8 0 7 4 -3 11
-11 8 -12 12 -2 16 6 2 12 9 12 14 0 6 -4 7 -10 4 -6 -3 -10 -2 -10 4 0 5 5
13 10 16 6 4 7 12 3 18 -12 20 -12 41 0 56 9 12 9 13 0 7 -7 -4 -13 -2 -13 3
0 6 6 11 13 11 8 0 7 4 -3 11 -11 8 -12 12 -2 16 6 2 12 9 12 14 0 6 -4 7 -10
4 -5 -3 -10 -2 -10 4 0 5 5 13 10 16 6 4 7 12 3 18 -12 20 -12 41 0 56 9 12 9
13 0 7 -7 -4 -13 -2 -13 3 0 6 6 11 13 11 8 0 7 4 -3 11 -11 8 -12 12 -2 16 6
2 12 9 12 14 0 6 -4 7 -10 4 -5 -3 -10 -2 -10 4 0 5 5 13 10 16 6 4 7 12 3 18
-12 20 -12 41 0 56 9 12 9 13 0 7 -7 -4 -13 -2 -13 3 0 6 6 11 13 11 8 0 7 4
-3 11 -11 8 -12 12 -2 16 6 2 12 9 12 14 0 6 -4 7 -10 4 -5 -3 -10 -2 -10 4 0
5 5 13 10 16 6 4 7 12 3 18 -12 20 -12 41 0 56 9 12 9 13 0 7 -7 -4 -13 -2
-13 3 0 6 6 11 13 11 8 0 7 4 -3 11 -11 8 -12 12 -2 16 6 2 12 9 12 14 0 6 -4
7 -10 4 -6 -3 -10 -2 -10 4 0 5 5 13 10 16 6 4 7 12 3 18 -12 20 -12 41 0 56
9 12 9 13 0 7 -7 -4 -13 -2 -13 3 0 6 6 11 13 11 8 0 7 4 -3 11 -11 8 -12 12
-2 16 6 2 12 9 12 14 0 6 -4 7 -10 4 -5 -3 -10 -2 -10 4 0 5 5 13 10 16 6 4 7
12 3 18 -12 20 -12 41 0 56 9 12 9 13 0 7 -7 -4 -13 -2 -13 3 0 6 6 11 13 11
8 0 7 4 -3 11 -11 8 -12 12 -2 16 6 2 12 9 12 14 0 6 -4 7 -10 4 -5 -3 -10 -2
-10 4 0 5 5 13 10 16 6 4 7 12 3 18 -12 20 -12 41 0 56 9 12 9 13 0 7 -7 -4
-13 -2 -13 3 0 6 6 11 13 11 8 0 7 4 -3 11 -11 8 -12 12 -2 16 6 2 12 9 12 14
0 6 -4 7 -10 4 -5 -3 -10 -2 -10 4 0 5 5 13 10 16 6 4 7 12 3 18 -12 20 -12
41 0 56 9 12 9 13 0 7 -7 -4 -13 -2 -13 3 0 6 6 11 13 11 8 0 7 4 -3 11 -11 8
-12 12 -2 16 6 2 12 9 12 14 0 6 -5 7 -10 4 -6 -3 -10 -2 -10 4 0 5 5 13 10
16 6 4 7 12 3 18 -12 20 -12 41 0 56 9 12 9 13 0 7 -7 -4 -13 -2 -13 3 0 6 6
11 13 11 8 0 7 4 -3 11 -11 8 -12 12 -2 16 6 2 12 9 12 14 0 6 -4 7 -10 4 -5
-3 -10 -2 -10 4 0 5 5 13 10 16 6 4 7 12 3 18 -12 20 -12 41 0 56 9 12 9 13 0
7 -7 -4 -13 -2 -13 3 0 6 6 11 13 11 8 0 7 4 -3 11 -11 8 -12 12 -2 16 6 2 12
9 12 14 0 6 -4 7 -10 4 -5 -3 -10 -2 -10 4 0 5 5 13 10 16 6 4 7 12 3 18 -12
20 -12 41 0 56 9 12 9 13 0 7 -7 -4 -13 -2 -13 3 0 6 6 11 13 11 8 0 7 4 -3
11 -11 8 -12 12 -2 16 6 2 12 9 12 14 0 6 -4 7 -10 4 -14 -9 -12 8 3 24 10 11
9 14 -1 18 -10 4 -10 8 0 21 8 10 9 13 1 9 -8 -5 -10 28 -7 135 5 143 5 155 3
193 -2 34 12 64 30 63 9 -1 589 0 1289 0 l1272 2 0 315 0 316 -1290 -3 c-855
-2 -1290 0 -1291 7 0 6 0 28 1 50 1 22 -3 59 -8 82 -7 28 -6 45 1 52 8 8 8 11
-1 11 -8 0 -9 7 -2 24 5 13 6 27 3 30 -11 11 -10 81 1 95 8 11 8 13 -1 7 -16
-9 -16 -1 -2 26 8 15 8 19 0 14 -7 -4 -11 1 -11 13 0 12 5 21 10 21 6 0 10 5
10 11 0 5 -4 7 -10 4 -5 -3 -10 1 -10 10 0 10 5 14 13 9 10 -6 10 -4 0 7 -15
15 -17 33 -4 24 5 -3 13 -1 16 5 4 6 1 9 -5 8 -14 -3 -22 30 -13 52 10 24 12
40 4 36 -3 -2 -7 22 -7 54 0 32 3 57 6 55 4 -2 7 2 7 10 0 8 -4 12 -9 9 -4 -3
-8 0 -8 5 0 6 6 11 13 11 8 0 7 4 -3 11 -11 8 -12 12 -2 16 6 2 12 9 12 14 0
6 -4 7 -10 4 -11 -7 -14 8 -3 19 9 9 13 37 4 32 -3 -2 -7 22 -7 54 0 32 3 57
6 55 4 -2 7 2 7 10 0 8 -4 12 -9 9 -4 -3 -8 0 -8 5 0 6 6 11 13 11 8 0 7 4 -3
11 -11 8 -12 12 -2 16 6 2 12 9 12 14 0 6 -4 7 -10 4 -11 -7 -14 8 -3 19 9 9
13 37 4 32 -3 -2 -7 22 -7 54 0 32 3 57 6 55 4 -2 7 2 7 10 0 8 -4 12 -9 9 -4
-3 -8 0 -8 5 0 6 6 11 13 11 8 0 7 4 -3 11 -11 8 -12 12 -2 16 6 2 12 9 12 14
0 6 -4 7 -10 4 -11 -7 -14 8 -3 19 9 9 13 37 4 32 -3 -2 -7 22 -7 54 0 32 3
57 6 55 4 -2 7 2 7 10 0 8 -4 12 -9 9 -4 -3 -8 0 -8 5 0 6 6 11 13 11 8 0 7 4
-3 11 -11 8 -12 12 -2 16 6 2 12 9 12 14 0 6 -4 7 -10 4 -11 -7 -14 8 -3 19 9
9 13 37 4 32 -3 -2 -7 22 -7 54 0 32 3 57 6 55 4 -2 7 2 7 10 0 8 -4 12 -9 9
-4 -3 -8 0 -8 5 0 6 6 11 13 11 8 0 7 4 -3 11 -11 8 -12 12 -2 16 6 2 12 9 12
14 0 6 -4 7 -10 4 -11 -7 -14 8 -3 19 9 9 13 37 4 32 -3 -2 -7 22 -7 54 0 32
3 57 6 55 4 -2 7 2 7 10 0 8 -4 12 -9 9 -4 -3 -8 0 -8 5 0 6 6 11 13 11 8 0 7
4 -3 11 -11 8 -12 12 -2 16 6 2 12 9 12 14 0 6 -4 7 -10 4 -11 -7 -14 8 -3 19
9 9 13 37 4 32 -3 -2 -7 22 -7 54 0 32 3 57 6 55 4 -2 7 2 7 10 0 8 -4 12 -9
9 -4 -3 -8 0 -8 5 0 6 6 11 13 11 8 0 7 4 -3 11 -11 8 -12 12 -2 16 6 2 12 9
12 14 0 6 -4 7 -10 4 -11 -7 -14 8 -3 19 9 9 13 37 4 32 -3 -2 -7 22 -7 54 0
32 3 57 6 55 4 -2 7 2 7 10 0 8 -4 12 -9 9 -4 -3 -8 0 -8 5 0 6 6 11 13 11 8
0 7 4 -3 11 -11 8 -12 12 -2 16 6 2 12 9 12 14 0 6 -4 7 -10 4 -11 -7 -14 8
-3 19 9 9 13 37 4 32 -3 -2 -7 22 -7 54 0 32 3 57 6 55 4 -2 7 2 7 10 0 8 -4
12 -9 9 -4 -3 -8 0 -8 5 0 6 6 11 13 11 8 0 7 4 -3 11 -11 8 -12 12 -2 16 6 2
12 9 12 14 0 6 -4 7 -10 4 -11 -7 -14 8 -3 19 9 9 13 37 4 32 -3 -2 -7 22 -7
54 0 32 3 57 6 55 4 -2 7 2 7 10 0 8 -4 12 -9 9 -4 -3 -8 0 -8 5 0 6 6 11 13
11 8 0 7 4 -3 11 -11 8 -12 12 -2 16 6 2 12 9 12 14 0 6 -4 7 -10 4 -11 -7
-14 8 -3 19 9 9 13 37 4 32 -3 -2 -7 22 -7 54 0 32 3 57 6 55 4 -2 7 2 7 10 0
8 -4 12 -9 9 -4 -3 -8 0 -8 5 0 6 6 11 13 11 8 0 7 4 -3 11 -11 8 -12 12 -2
16 6 2 12 9 12 14 0 6 -4 7 -10 4 -11 -7 -14 8 -3 19 9 9 13 37 4 32 -3 -2 -7
22 -7 54 0 32 3 57 6 55 4 -2 7 2 7 10 0 8 -4 12 -9 9 -4 -3 -8 -1 -8 5 0 5 6
12 13 14 9 4 8 6 -2 6 -11 1 -11 4 0 17 10 13 10 17 -2 25 -8 5 -9 9 -2 9 6 0
13 10 15 23 2 12 8 21 14 20 7 -1 9 8 6 22 -2 15 0 25 7 25 7 0 9 5 6 10 -3 6
-1 10 6 10 7 0 9 3 6 7 -4 3 2 12 12 20 12 8 18 22 16 33 -2 12 2 20 10 20 8
0 12 6 9 14 -3 7 2 20 10 29 8 8 12 17 9 21 -4 3 1 6 11 6 9 0 14 5 11 10 -3
6 -3 10 2 10 4 0 14 13 21 29 9 20 18 28 28 24 10 -4 12 0 7 13 -3 10 -2 15 3
12 5 -4 18 1 29 9 17 13 17 15 2 9 -11 -3 -16 -2 -12 4 3 6 11 10 17 10 6 0
21 12 34 26 14 15 29 22 37 18 6 -4 9 -4 5 1 -4 4 0 14 8 23 14 13 17 13 26 1
8 -11 9 -11 5 3 -3 9 1 22 9 29 12 10 14 9 9 -7 -4 -13 -2 -12 6 4 7 12 16 22
21 22 5 0 6 -6 3 -12 -4 -7 0 -5 9 6 8 10 20 15 27 10 8 -4 10 -3 5 4 -4 7 -1
12 9 12 9 0 13 4 10 10 -3 6 1 7 9 4 9 -3 16 -1 16 5 0 6 5 11 11 11 5 0 7 -6
3 -12 -4 -7 2 -5 14 5 11 11 25 16 30 13 6 -3 12 1 16 9 3 8 11 15 18 15 9 0
8 -3 -2 -10 -10 -7 -11 -10 -2 -10 7 0 15 6 18 14 3 8 14 16 25 19 11 3 16 1
13 -5 -4 -6 5 -3 18 6 14 9 28 13 31 10 4 -4 14 -1 23 7 18 15 20 14 43 -4 11
-9 13 -9 8 -1 -6 11 10 19 53 29 8 2 21 -2 29 -8 12 -9 13 -9 7 1 -4 7 -2 12
6 12 8 0 20 -6 27 -12 11 -10 13 -10 7 0 -4 7 -2 12 6 12 8 0 20 -6 28 -12 12
-11 12 -10 1 5 -7 9 -10 17 -5 18 5 0 17 2 27 4 11 2 15 -1 10 -8 -5 -8 -2 -8
8 0 12 10 18 10 29 0 7 -6 10 -7 7 -1 -4 7 8 11 33 11 22 0 40 -5 40 -11 0 -7
3 -7 8 -1 10 14 74 17 66 3 -5 -7 -2 -8 7 -2 19 12 30 12 58 -3 14 -6 28 -10
33 -7 4 3 8 0 8 -5 0 -6 5 -11 11 -11 5 0 7 5 4 10 -3 6 -1 10 4 10 6 0 11 -5
11 -10 0 -6 3 -9 8 -9 22 4 42 -2 37 -11 -3 -6 1 -7 9 -4 9 3 16 1 16 -6 0 -6
4 -9 9 -5 18 10 118 -55 104 -68 -3 -4 4 -4 17 -2 17 3 20 1 11 -9 -9 -11 -8
-14 6 -12 10 0 17 -5 15 -12 -1 -6 4 -11 10 -10 7 2 12 -3 10 -10 -1 -8 2 -11
8 -7 5 3 10 -2 10 -12 0 -15 2 -16 10 -3 8 12 10 11 10 -7 0 -14 6 -23 15 -23
9 0 12 -6 8 -17 -3 -10 -3 -15 1 -11 12 11 49 -29 41 -43 -5 -7 -4 -10 1 -7 5
3 23 -8 39 -24 17 -17 23 -27 15 -23 -8 4 -5 -2 7 -14 12 -11 26 -21 30 -21 4
0 21 -11 37 -25 32 -27 41 -31 30 -13 -5 8 -2 9 10 5 10 -4 22 -7 28 -7 6 0 7
-8 4 -17 -5 -15 -4 -15 9 1 8 11 15 15 15 10 0 -5 33 -9 75 -9 46 1 75 -3 75
-10 0 -5 5 -3 10 5 8 12 13 13 29 3 10 -6 22 -9 25 -5 10 10 56 10 56 0 0 -4
8 -8 18 -8 13 0 14 2 4 9 -11 7 -11 9 2 14 9 4 16 2 16 -3 0 -6 5 -10 11 -10
5 0 8 4 5 8 -3 5 9 8 27 7 18 -1 35 3 39 8 4 7 12 6 22 -2 12 -10 16 -10 16
-2 0 7 5 9 10 6 6 -4 7 -11 4 -17 -4 -7 -2 -8 5 -4 6 4 9 12 5 17 -6 11 38 5
57 -7 8 -5 9 -3 4 5 -5 9 2 12 27 10 18 -2 39 0 46 5 6 4 17 4 22 1 6 -3 10
-1 10 5 0 8 6 7 21 -1 17 -9 20 -8 14 2 -6 9 -3 11 8 6 9 -3 16 -3 14 1 -1 4
3 7 8 7 5 0 9 -4 7 -8 -1 -5 2 -6 8 -2 6 3 8 11 5 16 -4 5 -1 9 6 9 7 0 9 3 6
6 -3 4 -2 14 3 24 5 10 10 192 10 414 1 251 5 396 11 396 6 0 7 5 3 12 -9 15
-12 101 -14 476 0 194 -5 310 -11 307 -5 -4 -9 -1 -9 4 0 6 -7 11 -15 11 -8 0
-15 5 -15 11 0 6 -7 9 -15 5 -8 -3 -15 -1 -15 5 0 6 -6 9 -14 6 -8 -3 -20 1
-27 9 -10 12 -9 13 7 8 15 -5 16 -4 4 5 -9 6 -18 7 -24 1 -14 -14 -29 -12 -20
2 5 7 3 8 -6 3 -7 -4 -16 -2 -21 6 -5 9 -9 10 -9 2 0 -13 -18 -12 -39 1 -9 6
-12 5 -7 -2 9 -14 -96 -11 -106 3 -5 6 -8 6 -8 -2 0 -13 -18 -12 -39 1 -9 6
-12 5 -8 -1 4 -6 -4 -11 -21 -11 -15 0 -37 -2 -49 -5 -13 -3 -23 -1 -23 4 0 6
-5 7 -10 4 -6 -4 -8 -10 -5 -15 8 -13 -42 -4 -62 11 -15 11 -16 11 -5 -1 24
-27 12 -31 -56 -16 -12 3 -20 1 -17 -3 2 -5 -4 -11 -16 -14 -17 -5 -18 -3 -7
10 12 15 11 15 -9 3 -12 -8 -20 -17 -18 -20 2 -4 -2 -7 -10 -7 -8 0 -11 5 -8
11 4 6 0 5 -9 -2 -13 -10 -17 -10 -21 0 -3 8 -6 6 -6 -5 -1 -10 -5 -16 -10
-13 -5 4 -12 0 -14 -6 -3 -7 -6 -4 -6 6 -1 19 -1 19 -15 1 -8 -12 -20 -16 -34
-13 -12 3 -20 1 -19 -4 3 -14 -35 -19 -49 -7 -9 8 -11 4 -7 -13 3 -13 1 -19
-4 -13 -10 12 -45 16 -38 5 3 -4 -2 -11 -11 -14 -8 -3 -12 -2 -9 4 3 6 1 10
-4 10 -6 0 -11 -6 -11 -13 0 -8 -6 -14 -14 -14 -8 0 -12 7 -9 16 4 13 3 14 -5
2 -6 -8 -16 -16 -24 -17 -57 -12 -73 -16 -80 -20 -4 -3 -8 3 -8 13 -1 16 -2
16 -10 2 -6 -10 -20 -14 -42 -12 -18 2 -40 3 -48 3 -8 -1 -30 -1 -47 -2 -18 0
-31 -4 -28 -8 2 -4 -2 -7 -9 -7 -8 0 -12 7 -8 15 4 11 2 13 -9 6 -8 -5 -34 -9
-59 -10 -25 -1 -39 1 -32 3 6 3 12 10 12 16 -1 7 -10 1 -20 -12 -15 -17 -20
-19 -20 -8 0 9 -5 19 -12 23 -7 5 -8 3 -3 -5 5 -9 -1 -11 -24 -8 -17 3 -29 1
-25 -4 3 -5 0 -9 -5 -9 -6 0 -11 5 -11 10 0 6 -5 10 -11 10 -5 0 -7 -6 -3 -12
4 -7 -2 -5 -13 5 -11 9 -23 14 -26 11 -4 -4 -14 -1 -24 7 -9 8 -14 9 -11 4 4
-6 -2 -16 -12 -23 -15 -9 -21 -8 -32 5 -11 14 -11 16 1 8 9 -5 12 -4 8 3 -6 8
-42 10 -42 2 0 -1 -14 -3 -32 -4 -17 -1 -29 2 -27 6 7 12 -14 10 -39 -4 -21
-11 -21 -10 -7 7 14 17 13 18 -2 12 -10 -3 -18 -2 -18 3 0 6 -7 10 -15 10 -8
0 -15 6 -15 13 0 8 -3 8 -8 1 -13 -19 -42 -25 -48 -9 -4 8 -13 15 -21 15 -8 0
-11 5 -7 12 4 7 3 8 -4 4 -6 -4 -9 -14 -6 -24 4 -12 3 -14 -3 -4 -6 7 -16 12
-24 10 -10 -2 -13 5 -11 22 1 18 -1 21 -7 11 -5 -7 -14 -11 -20 -7 -6 4 -9 1
-8 -6 2 -7 2 -10 0 -5 -3 4 -9 5 -14 2 -5 -4 -6 2 -2 11 5 14 1 16 -25 12 -27
-4 -30 -2 -19 11 9 12 9 13 0 7 -8 -4 -13 -2 -13 8 0 8 -4 17 -9 20 -4 3 -6
-7 -4 -22 3 -24 2 -25 -6 -6 -6 14 -19 22 -35 22 -15 0 -23 -5 -19 -11 3 -6 1
-7 -5 -3 -6 4 -8 14 -5 23 5 13 1 15 -25 11 -22 -3 -29 -1 -22 7 6 7 3 11 -10
11 -10 0 -16 -5 -12 -11 3 -5 -2 -4 -11 4 -14 11 -17 11 -17 0 -1 -8 -7 -3
-14 10 -10 18 -15 20 -19 10 -4 -11 -6 -11 -6 -1 -1 7 -5 10 -11 7 -5 -3 -10
2 -10 12 0 10 -4 14 -8 8 -10 -14 -32 -17 -32 -5 0 6 -13 10 -30 10 -16 0 -30
5 -30 11 0 6 -9 9 -19 6 -12 -3 -22 1 -25 10 -5 13 -9 13 -23 2 -9 -8 -14 -9
-10 -3 4 8 -3 12 -21 11 -15 0 -35 3 -44 8 -12 4 -18 3 -18 -5 0 -10 -3 -10
-15 0 -8 7 -21 10 -30 7 -8 -4 -17 -2 -20 3 -6 10 -31 7 -42 -5 -4 -4 -2 -5 6
0 10 6 12 4 6 -5 -6 -10 -11 -10 -20 3 -13 18 -31 24 -21 8 7 -10 -13 -9 -30
2 -17 10 -976 4 -998 -7 -14 -7 -17 -6 -12 2 12 20 -2 14 -24 -10z m1960 -233
c0 -2 -9 -3 -19 -2 -11 0 -18 5 -15 9 4 6 34 0 34 -7z m260 -35 c0 -5 -5 -10
-11 -10 -5 0 -7 5 -4 10 3 6 8 10 11 10 2 0 4 -4 4 -10z m-3115 -959 c3 -5 1
-12 -5 -16 -5 -3 -10 1 -10 9 0 18 6 21 15 7z m-295 -25 c0 -3 -4 -8 -10 -11
-5 -3 -10 -1 -10 4 0 6 5 11 10 11 6 0 10 -2 10 -4z m2460 -700 c0 -3 -4 -8
-10 -11 -5 -3 -10 -1 -10 4 0 6 5 11 10 11 6 0 10 -2 10 -4z"/>
<path d="M12045 14470 c-4 -6 -14 -9 -22 -6 -9 4 -11 2 -7 -6 5 -8 2 -9 -10
-5 -9 4 -15 3 -12 -2 7 -11 -22 -23 -36 -14 -6 3 -8 2 -5 -4 4 -5 -5 -16 -18
-23 -13 -7 -22 -17 -20 -21 3 -4 -4 -10 -14 -14 -11 -3 -23 -15 -26 -26 -4
-11 -11 -16 -17 -13 -8 5 -9 1 -5 -10 4 -10 3 -15 -3 -11 -6 3 -10 2 -10 -4 0
-6 -12 -17 -27 -25 -16 -8 -25 -15 -21 -16 5 0 -2 -11 -13 -24 -13 -15 -27
-22 -37 -19 -10 4 -13 2 -8 -5 7 -11 -30 -17 -76 -13 -10 1 -18 -4 -18 -11 0
-9 -3 -9 -10 2 -9 13 -10 13 -10 0 0 -13 -1 -13 -10 0 -8 12 -10 12 -10 1 0
-11 -3 -11 -17 0 -15 12 -16 12 -10 -3 7 -19 -12 -21 -25 -3 -5 6 -8 6 -8 -2
0 -6 -11 -10 -25 -8 -14 1 -28 -2 -31 -7 -3 -5 -12 -7 -20 -4 -8 3 -14 2 -14
-2 0 -4 -10 -13 -22 -21 l-23 -14 20 22 20 23 -32 -18 c-17 -10 -29 -22 -27
-26 3 -5 0 -8 -5 -8 -6 0 -11 6 -11 13 0 8 -4 7 -10 -3 -5 -8 -10 -12 -10 -7
0 4 -9 -2 -19 -12 -13 -13 -27 -18 -42 -14 -15 4 -20 3 -15 -5 5 -8 -2 -12
-19 -12 -17 0 -24 -4 -19 -12 5 -8 2 -9 -9 -5 -11 4 -17 1 -17 -8 0 -9 -6 -12
-17 -8 -11 4 -14 3 -9 -5 5 -8 2 -10 -8 -6 -9 4 -18 0 -22 -9 -3 -9 -13 -13
-25 -10 -11 3 -19 0 -19 -6 0 -7 5 -9 12 -5 7 4 8 3 4 -5 -6 -9 -11 -9 -24 1
-13 11 -14 11 -7 -1 6 -11 4 -13 -10 -7 -15 5 -16 4 -5 -9 15 -18 -1 -20 -19
-2 -10 10 -11 8 -5 -7 5 -13 4 -17 -3 -13 -6 4 -13 0 -17 -8 -3 -8 -14 -15
-24 -15 -23 0 -55 -33 -45 -45 5 -5 0 -3 -10 5 -10 7 -17 9 -16 4 3 -19 -1
-34 -10 -31 -5 1 -17 -7 -26 -18 -9 -11 -14 -14 -10 -8 4 8 1 11 -9 7 -9 -3
-14 -11 -13 -17 1 -7 -4 -11 -12 -9 -8 2 -11 -3 -8 -12 4 -9 3 -15 -1 -15 -27
4 -43 -3 -40 -18 2 -13 -3 -17 -16 -15 -11 2 -15 -1 -11 -8 4 -7 -2 -14 -14
-17 -11 -3 -18 -10 -14 -16 4 -6 0 -8 -11 -4 -10 4 -15 3 -11 -3 3 -6 1 -10
-6 -10 -7 0 -9 -3 -6 -7 4 -3 -7 -15 -24 -25 -19 -12 -29 -24 -25 -33 3 -8 2
-14 -2 -13 -4 1 -15 -2 -25 -7 -15 -6 -16 -10 -5 -17 9 -7 7 -8 -9 -5 -20 5
-22 3 -11 -16 10 -20 10 -21 -5 -8 -15 12 -17 11 -17 -3 0 -9 -7 -16 -15 -16
-9 0 -12 -6 -8 -16 4 -10 -1 -17 -16 -21 -11 -3 -18 -9 -15 -14 3 -5 -1 -12
-10 -15 -9 -3 -12 -12 -9 -22 5 -12 2 -14 -11 -9 -9 4 -15 3 -12 -2 3 -4 -2
-17 -10 -27 -9 -10 -12 -13 -8 -5 4 9 3 12 -4 7 -6 -4 -8 -14 -5 -23 5 -12 2
-15 -9 -10 -11 4 -15 0 -14 -11 4 -22 -20 -45 -36 -36 -9 6 -9 3 1 -9 9 -12
10 -17 2 -17 -7 0 -9 -4 -6 -10 3 -5 1 -10 -5 -10 -6 0 -8 -5 -4 -12 5 -7 2
-9 -9 -5 -11 4 -14 2 -10 -9 3 -7 0 -14 -7 -14 -6 0 -8 -5 -5 -10 3 -6 -1 -13
-9 -16 -9 -3 -16 -15 -16 -25 0 -11 -6 -22 -14 -25 -8 -3 -12 -12 -9 -20 3 -8
0 -14 -6 -14 -6 0 -11 -7 -11 -16 0 -8 -5 -12 -10 -9 -6 4 -10 3 -9 -2 4 -16
-13 -63 -23 -63 -5 0 -6 -4 -3 -10 3 -5 1 -10 -5 -10 -6 0 -9 -4 -5 -9 3 -5
-2 -16 -10 -25 -9 -8 -15 -17 -15 -18 5 -10 -14 -58 -22 -58 -5 0 -7 -4 -3 -9
3 -5 1 -12 -5 -16 -6 -4 -8 -11 -5 -16 4 -5 2 -9 -3 -9 -5 0 -8 -12 -6 -26 2
-18 -2 -24 -11 -21 -9 4 -11 -1 -8 -14 3 -10 1 -19 -5 -19 -12 0 -10 -33 3
-42 6 -4 2 -8 -9 -8 -12 0 -16 -5 -13 -14 3 -8 1 -17 -6 -20 -9 -3 -9 -5 1 -5
6 -1 12 -6 12 -12 0 -5 -4 -7 -10 -4 -6 3 -7 -1 -4 -9 3 -9 2 -16 -3 -16 -6 0
-9 -16 -8 -36 1 -19 -2 -37 -7 -40 -8 -5 -9 -14 -8 -101 1 -30 -5 -47 -19 -60
-11 -9 -18 -20 -15 -25 3 -4 -2 -8 -10 -8 -9 0 -16 -7 -16 -16 0 -10 -5 -14
-16 -10 -8 3 -12 2 -9 -4 3 -5 -3 -15 -15 -22 -11 -7 -20 -19 -20 -26 0 -7 -6
-15 -13 -18 -10 -4 -13 -51 -12 -218 0 -184 3 -215 17 -229 20 -20 32 -22 22
-4 -4 6 2 3 14 -7 12 -10 35 -19 52 -20 16 -1 30 -5 30 -10 0 -5 6 -3 14 3 10
9 16 9 21 1 5 -8 11 -8 19 -1 7 6 16 8 19 4 4 -3 7 -1 7 5 0 7 5 12 11 12 5 0
7 -6 4 -12 -4 -7 0 -5 8 4 8 10 17 15 20 11 4 -3 7 -1 7 5 0 7 7 12 16 12 9 0
12 5 8 12 -5 8 -2 9 12 4 10 -4 15 -4 11 0 -4 4 4 17 18 29 13 13 21 26 17 31
-4 4 -2 4 5 0 7 -4 17 2 23 14 6 11 15 18 21 15 5 -4 9 3 9 15 0 12 3 19 8 17
9 -5 42 30 34 37 -5 6 13 10 30 7 4 0 5 6 2 13 -3 9 5 22 20 31 14 10 23 22
19 28 -4 6 2 8 15 5 12 -3 21 -3 20 1 -3 15 26 60 35 54 6 -4 8 0 4 10 -4 12
-2 14 11 10 9 -3 14 -3 10 2 -9 10 38 55 58 55 7 0 14 3 14 8 0 12 49 31 56
21 4 -6 11 -6 18 0 7 6 16 8 19 4 4 -3 7 -1 7 5 0 6 8 11 18 11 40 1 50 5 45
18 -3 8 2 13 14 13 10 0 25 6 32 13 11 10 12 9 6 -3 -8 -13 -6 -13 8 -2 9 8
21 11 27 7 6 -4 9 -1 8 7 -2 7 5 12 15 12 9 -1 17 2 17 7 0 5 7 9 16 9 9 0 12
5 8 12 -4 7 -3 8 4 4 6 -4 21 -1 32 6 17 11 22 11 29 0 4 -8 12 -14 17 -15 5
-1 8 -5 6 -9 -2 -8 15 -12 33 -8 6 1 7 -1 3 -5 -3 -4 11 -24 32 -45 21 -21 36
-41 32 -44 -3 -3 1 -6 9 -6 13 0 49 -33 49 -46 0 -2 10 -15 21 -27 12 -12 19
-15 15 -7 -4 8 0 6 8 -4 13 -16 13 -22 3 -29 -8 -6 -6 -7 6 -3 11 3 20 0 23
-9 3 -8 15 -17 25 -20 16 -6 18 -9 8 -21 -7 -9 -8 -14 -3 -13 24 4 31 -3 26
-26 -2 -14 -9 -22 -15 -18 -6 4 -8 0 -4 -11 4 -10 3 -15 -3 -11 -6 3 -10 1
-10 -4 0 -6 -7 -11 -16 -11 -8 0 -13 -4 -9 -9 3 -5 -4 -16 -15 -24 -11 -7 -17
-17 -13 -20 3 -4 1 -7 -5 -7 -6 0 -14 -9 -17 -21 -4 -11 -13 -18 -20 -15 -9 3
-12 -3 -10 -20 2 -20 0 -22 -12 -13 -11 10 -12 8 -7 -6 4 -9 2 -20 -5 -25 -7
-4 -13 -13 -14 -21 -2 -8 -7 -20 -11 -28 -6 -9 -5 -12 2 -7 6 3 14 1 17 -4 4
-6 17 -10 28 -8 12 1 28 -2 36 -6 9 -6 12 -5 7 2 -4 7 8 15 33 22 22 6 43 15
47 21 3 6 12 8 19 5 7 -2 16 2 19 9 3 9 12 12 22 8 11 -4 15 -3 10 5 -4 7 1
10 14 7 11 -2 20 0 20 6 0 5 9 9 19 9 11 0 22 4 25 8 7 12 66 14 66 2 0 -5 5
-10 11 -10 15 0 39 -26 32 -34 -4 -3 -1 -6 6 -6 7 0 9 -5 6 -10 -4 -6 -1 -9 6
-8 7 2 18 -8 26 -22 7 -14 13 -19 13 -10 0 13 2 13 9 0 6 -8 7 -18 4 -24 -3
-5 -1 -6 5 -2 7 4 12 2 12 -4 0 -6 4 -9 9 -5 5 3 12 -4 16 -15 3 -11 11 -20
16 -20 6 0 7 -4 4 -10 -3 -5 -1 -10 6 -10 12 0 63 -50 51 -50 -4 0 4 -6 17
-13 13 -6 24 -16 24 -22 0 -5 8 -16 18 -23 15 -11 17 -16 7 -32 -7 -10 -16
-16 -20 -14 -4 3 -8 0 -8 -6 0 -16 -26 -40 -35 -32 -4 4 -5 0 -3 -8 2 -8 -3
-14 -10 -12 -8 1 -11 -2 -8 -6 7 -12 -39 -63 -48 -54 -4 3 -5 0 -1 -8 3 -8 -8
-31 -25 -50 -17 -19 -28 -41 -25 -47 2 -7 0 -13 -5 -13 -5 0 -7 -7 -3 -15 3
-9 8 -13 11 -10 3 3 16 -2 28 -10 14 -9 25 -11 29 -5 3 6 18 10 32 10 19 0 24
4 19 16 -5 14 -4 15 9 4 11 -9 15 -9 15 -1 0 7 5 9 10 6 6 -3 10 -2 10 3 0 5
7 9 15 10 8 1 22 3 30 4 8 1 12 5 9 10 -3 4 0 8 5 8 22 0 26 2 45 18 15 13 18
14 12 2 -4 -8 -1 -7 7 3 11 14 16 15 20 5 3 -8 6 -6 6 5 1 10 6 15 11 12 6 -3
10 0 11 7 0 7 4 4 9 -7 l9 -20 0 20 c1 17 3 17 11 5 6 -9 10 -11 10 -3 0 7 7
10 16 6 13 -5 13 -7 2 -14 -11 -7 -10 -9 1 -9 8 0 32 -19 55 -42 22 -24 44
-42 49 -40 5 2 7 -4 4 -12 -4 -9 -1 -15 6 -13 7 1 11 -4 9 -10 -1 -7 7 -13 19
-13 11 0 18 -4 15 -9 -3 -5 1 -12 10 -15 9 -4 14 -9 11 -13 -8 -7 44 -49 56
-45 5 1 6 -2 2 -8 -3 -5 0 -10 7 -10 9 0 9 -3 -2 -10 -12 -8 -11 -10 8 -10 12
0 22 -6 22 -14 0 -8 5 -18 12 -22 7 -5 8 -3 3 6 -5 8 -4 11 3 6 6 -4 8 -14 5
-24 -8 -21 -53 -77 -53 -66 0 5 -7 -2 -16 -14 -8 -12 -12 -26 -9 -32 4 -6 -1
-7 -12 -3 -10 3 -15 3 -11 -2 4 -4 0 -14 -10 -22 -10 -9 -11 -12 -2 -7 8 4 3
-4 -12 -19 -16 -14 -28 -33 -28 -42 0 -8 -7 -15 -17 -15 -9 0 -13 -3 -10 -7 4
-3 -1 -12 -11 -20 -9 -8 -11 -12 -5 -8 10 5 11 0 3 -20 -12 -33 -13 -38 -1
-30 5 3 12 1 15 -4 4 -6 18 -6 36 -1 17 5 30 6 30 3 0 -3 7 0 15 7 8 7 21 10
29 7 10 -4 13 -1 9 9 -4 10 0 12 13 7 12 -4 15 -3 10 5 -4 7 -2 12 3 12 6 0
11 -6 11 -12 0 -10 3 -9 9 1 5 8 14 10 21 6 9 -5 11 -4 6 3 -4 7 -2 12 3 12
18 0 26 3 39 17 8 7 18 11 23 8 5 -4 9 -1 9 6 0 7 3 9 7 6 3 -4 15 1 26 10 15
13 18 14 12 3 -7 -13 -6 -13 7 -2 31 25 56 22 78 -7 l20 -28 -49 -49 c-54 -55
-140 -130 -174 -153 -13 -9 -44 -35 -68 -57 -24 -23 -61 -57 -83 -75 -21 -19
-47 -42 -58 -52 -17 -16 -19 -16 -25 -1 -5 13 -7 13 -14 2 -7 -10 -9 -10 -9 0
0 6 -7 12 -15 12 -8 0 -15 5 -15 10 0 6 -5 10 -11 10 -5 0 -7 -5 -4 -11 4 -6
-2 -5 -14 3 -12 7 -21 16 -21 20 0 5 -13 8 -29 8 -30 0 -56 21 -43 35 4 4 -2
3 -14 -3 -14 -8 -24 -8 -31 -1 -8 8 -13 7 -17 0 -5 -7 -15 -6 -32 5 -22 15
-24 15 -25 -2 0 -18 -1 -18 -9 1 -5 11 -9 15 -9 8 -1 -6 -10 -10 -21 -8 -11 2
-19 1 -19 -3 3 -18 -2 -33 -8 -29 -14 9 -6 -62 8 -80 8 -9 9 -14 3 -10 -6 3
-11 0 -11 -8 0 -8 4 -12 9 -9 4 3 9 0 9 -5 1 -6 3 -15 4 -21 1 -5 3 -17 4 -26
0 -8 5 -13 10 -10 14 9 21 -20 8 -33 -9 -9 -8 -10 7 -5 13 5 17 4 12 -4 -4 -7
-2 -12 3 -12 6 0 11 -7 11 -15 0 -8 9 -24 19 -34 11 -11 17 -22 13 -25 -3 -3
1 -6 8 -6 7 0 10 -3 7 -7 -4 -3 -1 -13 6 -21 10 -13 9 -15 -7 -9 -17 7 -17 5
-5 -10 7 -10 9 -15 5 -11 -11 10 -69 -49 -61 -62 4 -6 -1 -7 -11 -3 -14 5 -16
3 -11 -11 4 -10 3 -15 -3 -11 -6 3 -10 1 -10 -5 0 -6 -4 -8 -10 -5 -9 6 -14
-8 -11 -27 1 -7 -14 -12 -31 -9 -4 0 -5 -6 -2 -14 5 -13 -6 -20 -28 -16 -4 0
-4 -7 -1 -16 4 -10 2 -14 -5 -9 -6 3 -13 2 -17 -4 -3 -5 -1 -10 6 -10 7 0 9
-3 6 -6 -10 -10 -87 -12 -81 -3 3 5 -2 9 -11 9 -10 0 -13 5 -9 13 4 6 4 9 -1
5 -4 -4 -21 0 -37 8 -18 10 -27 11 -23 4 6 -9 2 -9 -14 -1 -11 7 -21 17 -21
23 0 7 -4 7 -13 -1 -10 -8 -19 -6 -35 10 -12 11 -22 15 -22 10 0 -12 -62 8
-72 23 -5 7 -8 6 -8 -3 0 -9 -7 -11 -21 -8 -12 3 -22 0 -26 -9 -3 -8 -13 -14
-22 -14 -14 0 -14 -2 -1 -10 12 -7 12 -10 1 -10 -7 0 -11 -6 -7 -15 3 -8 0
-15 -7 -15 -8 0 -6 -4 3 -10 8 -5 11 -10 6 -10 -4 0 -1 -12 9 -26 9 -15 12
-23 6 -19 -7 4 -3 -10 8 -31 12 -21 21 -47 21 -56 0 -10 5 -17 12 -15 7 1 13
-2 13 -8 3 -28 18 -55 27 -49 7 5 9 1 5 -9 -4 -12 -1 -17 9 -17 10 0 14 -6 10
-15 -3 -10 1 -15 12 -15 15 0 15 -2 2 -10 -10 -6 -11 -10 -2 -10 6 0 12 -7 12
-15 0 -8 -8 -15 -17 -15 -9 0 -14 -3 -10 -6 8 -8 -16 -33 -25 -27 -8 4 -12
-12 -9 -30 1 -5 -3 -6 -8 -3 -5 4 -12 2 -16 -4 -4 -6 -11 -7 -17 -4 -7 4 -8 2
-4 -4 9 -15 -54 -84 -71 -77 -8 2 -12 1 -9 -4 3 -5 -6 -21 -19 -35 -14 -15
-25 -22 -25 -16 0 8 -6 8 -20 0 -15 -8 -20 -8 -20 1 0 6 -6 9 -14 6 -8 -3 -17
1 -20 9 -3 9 -10 13 -15 9 -5 -3 -13 0 -16 6 -4 5 -13 8 -21 5 -8 -3 -17 1
-20 9 -3 7 -12 11 -21 8 -8 -3 -18 -2 -22 3 -12 18 -67 37 -103 36 -21 0 -38
4 -38 10 0 6 -7 4 -17 -3 -15 -12 -16 -12 -8 1 4 8 -1 6 -11 -5 -26 -28 -47
-75 -33 -75 8 0 8 -4 0 -14 -9 -11 -9 -16 0 -22 8 -5 9 -3 4 6 -5 9 -4 11 4 6
6 -4 8 -12 5 -18 -4 -6 0 -14 7 -19 10 -6 11 -9 2 -9 -7 0 -13 -5 -13 -11 0
-5 5 -7 10 -4 6 3 10 -2 10 -11 0 -9 12 -33 27 -52 15 -20 21 -32 15 -28 -7 4
-12 2 -12 -3 0 -6 8 -11 17 -11 9 0 13 -3 10 -7 -4 -3 1 -12 11 -20 16 -12 15
-13 -3 -7 -18 6 -17 4 3 -10 12 -10 19 -22 16 -28 -4 -7 -2 -8 4 -4 7 4 12 1
12 -7 0 -8 10 -21 22 -29 20 -13 21 -17 9 -32 -7 -9 -10 -16 -6 -16 5 0 -2 -8
-13 -19 -12 -10 -18 -21 -14 -25 4 -4 -2 -14 -12 -22 -11 -8 -17 -14 -13 -14
4 0 -1 -9 -10 -19 -9 -11 -21 -17 -27 -14 -6 4 -4 -2 4 -12 8 -10 10 -16 5
-13 -6 4 -19 -1 -30 -9 -19 -15 -19 -15 5 -8 24 6 23 5 -4 -14 -17 -11 -32
-19 -35 -17 -35 14 -60 30 -56 36 2 4 -2 7 -10 7 -8 0 -12 -4 -9 -8 2 -4 0
-11 -6 -14 -6 -4 -9 -1 -8 7 2 8 -7 13 -24 13 -15 1 -31 5 -35 10 -5 4 -1 5 7
0 12 -6 13 -5 3 5 -10 11 -15 11 -29 -1 -10 -8 -15 -9 -11 -3 9 15 -60 17 -70
1 -10 -16 -11 -80 -1 -88 4 -3 9 -17 10 -31 1 -15 6 -24 10 -22 4 3 8 -6 8
-19 0 -16 7 -26 20 -30 11 -3 20 -11 20 -19 0 -10 -3 -9 -10 2 -5 8 -10 11
-10 5 0 -5 15 -22 33 -38 17 -16 26 -26 20 -23 -7 4 -13 3 -13 -3 0 -5 9 -13
20 -16 11 -4 18 -11 14 -16 -3 -5 -10 -6 -16 -3 -7 5 -8 2 -2 -7 13 -21 11
-32 -8 -53 -10 -11 -18 -28 -18 -38 0 -10 -5 -18 -11 -18 -5 0 -8 -4 -4 -9 3
-5 1 -12 -5 -16 -6 -4 -8 -11 -5 -16 4 -5 2 -9 -2 -9 -8 0 -43 -68 -43 -83 0
-4 -9 -16 -20 -27 -16 -16 -20 -17 -20 -5 0 8 -5 15 -11 15 -5 0 -7 -5 -4 -10
4 -6 -5 -5 -19 2 -14 6 -26 15 -26 19 0 9 -20 6 -39 -5 -9 -6 -12 -5 -8 1 4 6
0 13 -8 17 -8 3 -15 1 -15 -4 0 -6 -5 -10 -11 -10 -5 0 -7 5 -3 12 5 7 3 8 -5
4 -7 -5 -10 -10 -7 -14 3 -3 -2 -11 -12 -18 -11 -9 -13 -13 -4 -14 7 0 10 -4
7 -10 -3 -5 0 -10 7 -10 10 0 10 -2 -1 -9 -11 -7 -8 -14 14 -35 21 -20 24 -25
9 -20 -13 4 -10 -1 10 -18 17 -14 26 -30 22 -36 -5 -8 -1 -10 10 -5 11 4 15 3
11 -4 -4 -6 0 -19 9 -27 11 -12 12 -16 2 -16 -10 0 -10 -2 -1 -8 13 -8 14 -52
1 -52 -4 0 -5 -9 -3 -20 2 -11 0 -20 -6 -20 -5 0 -8 -3 -8 -7 3 -20 -2 -34
-10 -29 -5 4 -7 -3 -4 -14 3 -13 0 -20 -8 -20 -10 0 -10 -3 -2 -11 14 -14 5
-42 -9 -33 -6 4 -8 -1 -4 -13 4 -12 0 -25 -9 -33 -12 -10 -13 -16 -4 -27 9
-11 8 -17 -7 -28 -15 -11 -16 -15 -4 -16 69 -5 80 -4 79 5 -3 26 2 37 13 30
19 -12 48 -12 41 -1 -4 6 1 8 11 4 10 -4 15 -3 11 3 -3 6 -1 10 5 10 6 0 8 5
4 12 -4 7 -3 8 4 4 6 -4 23 0 36 9 14 9 30 14 36 10 5 -3 10 -1 10 4 0 6 5 11
12 11 6 0 20 8 30 17 18 16 18 16 12 -3 -6 -17 -4 -16 15 4 24 24 37 29 25 10
-6 -10 -5 -10 8 -1 8 7 19 9 23 5 5 -4 5 -2 1 5 -3 6 -2 14 4 18 5 3 10 0 10
-7 0 -8 3 -9 8 -3 12 17 47 41 38 27 -6 -10 -2 -10 18 -1 14 7 23 17 19 23 -3
6 -3 8 2 4 4 -4 15 -2 23 5 13 9 14 9 8 0 -4 -7 -2 -13 3 -13 6 0 11 5 11 11
0 6 9 9 20 6 10 -3 18 -2 17 2 -2 7 7 11 24 11 5 0 7 -5 3 -11 -4 -8 0 -8 15
0 11 7 21 8 21 4 0 -5 9 -14 21 -21 13 -9 18 -9 14 -2 -5 8 0 7 13 -1 12 -7
19 -15 17 -19 -2 -3 14 -5 35 -5 36 -1 37 1 29 23 -5 13 -6 28 -3 34 4 7 2 8
-4 4 -7 -4 -12 -1 -12 9 0 9 -4 14 -9 11 -5 -3 -12 1 -15 10 -9 24 -7 56 3 50
5 -4 11 -1 13 4 2 6 10 12 18 14 29 6 50 18 44 27 -3 5 2 9 11 9 9 0 13 4 10
10 -3 5 0 7 8 4 8 -3 27 6 42 20 15 14 34 26 40 26 7 0 16 7 19 16 3 8 10 13
15 10 5 -3 17 5 27 19 10 13 21 22 26 19 4 -3 8 -1 8 4 0 5 9 12 21 15 12 3
18 10 14 16 -5 10 14 16 38 12 4 0 7 4 7 10 0 6 7 8 16 5 14 -5 15 -4 5 8 -10
12 -9 14 6 11 10 -1 24 2 31 8 9 7 16 7 24 -1 7 -7 22 -12 34 -12 13 0 26 -4
29 -10 4 -6 -1 -7 -12 -4 -14 5 -15 4 -4 -4 8 -6 20 -8 27 -5 6 2 15 0 19 -6
3 -6 15 -11 26 -11 10 0 19 -4 19 -8 0 -4 17 -9 38 -10 20 -2 39 -7 40 -12 2
-6 8 -10 13 -10 6 0 7 5 4 10 -3 6 -1 10 5 10 6 0 8 5 5 10 -3 6 -1 10 5 10 6
0 8 5 5 10 -4 6 -11 7 -17 4 -7 -5 -9 -2 -6 8 4 8 -2 21 -12 28 -11 8 -17 17
-14 22 3 4 0 8 -6 8 -7 0 -9 7 -6 17 4 10 4 14 0 11 -4 -4 -19 6 -34 22 -15
16 -31 26 -36 22 -5 -4 -2 2 6 12 12 16 12 18 1 12 -9 -6 -12 -5 -9 5 3 8 11
13 17 12 6 -2 10 1 8 6 -2 9 63 71 76 71 5 0 5 5 1 12 -5 8 -2 9 9 5 9 -3 16
-3 14 1 -3 10 41 52 55 52 6 0 9 3 5 6 -8 8 86 104 102 104 8 0 11 6 7 15 -5
13 -2 14 15 4 14 -7 19 -7 15 -1 -4 6 2 10 14 9 11 -1 20 -7 20 -13 0 -8 8
-10 22 -6 17 4 20 2 14 -13 -5 -15 -4 -16 8 -6 11 9 17 8 29 -4 9 -8 23 -15
32 -15 9 0 14 -3 12 -7 -3 -5 7 -9 21 -10 15 0 28 -6 30 -12 3 -9 8 -9 19 0
11 10 14 10 11 -2 -2 -8 3 -13 10 -12 6 2 12 -2 12 -8 0 -8 5 -7 16 1 8 8 14
9 13 4 -5 -29 2 -37 16 -18 13 16 14 16 9 2 -7 -20 12 -25 19 -5 3 7 6 5 6 -6
1 -14 5 -16 20 -7 14 7 22 7 26 -1 5 -6 12 -4 20 8 7 10 10 22 5 28 -4 5 -10
19 -12 30 -4 26 -20 44 -32 37 -5 -3 -6 0 -3 5 4 6 0 16 -8 23 -8 7 -12 16 -9
21 3 5 -2 6 -10 3 -11 -4 -16 0 -16 14 0 11 -7 23 -16 26 -9 3 -14 12 -11 20
4 10 -1 13 -16 10 -12 -2 -17 -2 -10 2 9 4 6 12 -10 28 -12 13 -25 21 -29 19
-5 -2 -8 3 -8 11 0 9 -5 16 -11 16 -5 0 -7 5 -3 12 5 8 2 9 -10 5 -12 -5 -15
-3 -9 6 8 12 9 17 12 37 0 6 8 10 17 10 8 0 12 5 9 10 -3 6 5 14 19 20 14 5
26 12 26 15 0 4 -4 3 -10 0 -6 -3 -7 1 -4 10 4 9 13 14 20 11 8 -3 14 1 14 9
0 8 5 15 11 15 5 0 7 5 3 12 -5 7 -2 9 9 5 11 -4 14 -2 11 7 -3 8 0 17 7 22 8
4 10 3 5 -4 -5 -8 -2 -10 9 -6 12 5 13 9 4 20 -10 12 -8 13 6 8 13 -5 16 -4
11 4 -4 8 -1 12 10 12 10 0 15 3 11 6 -10 10 22 36 34 28 7 -4 9 -3 6 3 -8 13
21 53 39 53 9 0 12 5 8 12 -5 8 0 9 17 4 13 -4 34 -7 47 -7 13 1 20 -4 17 -9
-3 -6 3 -10 15 -10 14 0 19 -4 14 -12 -6 -10 -4 -10 8 0 13 10 18 10 24 1 5
-8 3 -9 -6 -4 -8 5 -11 4 -6 -3 4 -6 13 -9 21 -5 8 3 15 0 15 -7 0 -6 5 -8 10
-5 6 3 13 -1 16 -10 6 -13 8 -14 15 -3 7 10 9 10 9 1 0 -7 11 -13 25 -13 14 0
25 -3 25 -8 0 -4 9 -13 21 -20 12 -8 18 -9 14 -3 -3 6 -1 11 4 11 6 0 11 -5
11 -11 0 -5 8 -9 18 -8 9 1 19 0 22 -1 3 -1 22 -3 42 -4 32 -2 35 0 25 13 -10
12 -9 14 8 7 19 -7 19 -6 -1 16 -28 31 -41 53 -25 43 10 -6 11 -3 2 13 -6 12
-17 24 -24 28 -7 5 -6 0 3 -12 14 -18 14 -18 -2 -5 -10 7 -18 18 -18 23 0 5
-7 16 -15 25 -8 8 -12 19 -9 25 4 6 3 9 -2 6 -11 -6 -45 28 -36 36 3 3 -2 6
-12 6 -9 0 -14 5 -11 10 3 6 -2 10 -11 10 -10 0 -15 3 -11 6 8 8 -16 33 -26
27 -4 -2 -7 -1 -6 4 3 19 -2 34 -10 29 -5 -3 -11 1 -15 9 -3 8 -1 15 4 15 5 0
6 7 3 17 -4 11 -3 14 5 9 7 -4 12 -2 12 4 0 6 4 8 10 5 6 -4 7 1 3 11 -4 12
-3 15 5 10 7 -4 16 3 23 18 8 16 17 22 27 18 12 -4 14 -1 8 13 -4 11 -4 16 0
13 8 -9 34 16 34 33 0 8 4 8 15 -1 13 -11 14 -10 10 2 -4 9 0 18 9 21 9 4 14
12 12 19 -1 7 -1 10 1 6 8 -13 25 -9 20 5 -2 6 2 18 9 25 8 7 14 10 14 7 0 -4
7 0 15 9 8 8 15 18 15 22 0 8 57 64 66 64 3 0 17 9 31 20 14 11 22 20 17 20
-15 0 90 100 144 136 28 20 52 40 52 44 0 9 27 21 58 25 12 2 22 -2 22 -9 0
-7 11 -19 25 -26 14 -7 25 -17 25 -22 0 -5 -5 -6 -11 -2 -8 5 -8 1 0 -14 8
-15 8 -23 -1 -28 -7 -5 -8 -3 -3 7 5 8 5 11 0 7 -4 -4 -13 -18 -20 -30 -6 -13
-17 -22 -23 -21 -7 2 -9 -4 -5 -14 4 -11 3 -14 -5 -9 -7 4 -12 2 -12 -3 0 -16
-37 -50 -46 -43 -4 4 -4 -1 -1 -11 4 -11 0 -21 -13 -29 -11 -7 -20 -18 -20
-24 0 -7 -7 -14 -15 -18 -8 -3 -15 -13 -15 -21 0 -10 -5 -13 -12 -9 -7 4 -10
4 -6 -1 4 -4 3 -15 -1 -24 -12 -23 3 -57 28 -64 12 -3 19 -1 15 4 -3 5 6 9 20
9 14 0 26 5 26 11 0 8 6 7 17 -2 11 -10 14 -10 9 -1 -4 7 -1 12 8 12 9 0 16 6
16 13 0 8 4 7 10 -3 5 -8 10 -10 10 -4 0 11 88 50 103 46 5 -1 6 2 2 8 -3 5 3
10 14 10 12 0 21 5 21 11 0 6 7 9 15 5 8 -3 15 -1 15 5 0 6 5 7 10 4 6 -3 10
-2 10 4 0 6 7 7 17 4 10 -4 14 -2 10 4 -4 7 0 10 10 8 10 -1 17 -8 15 -14 -1
-7 4 -11 11 -9 7 2 13 -1 14 -6 1 -5 14 -17 30 -27 15 -10 24 -19 19 -19 -5 0
3 -11 18 -25 15 -14 31 -25 37 -25 5 0 9 -7 9 -15 0 -8 5 -15 11 -15 5 0 8 -4
4 -9 -3 -5 0 -13 6 -17 8 -4 9 -3 5 4 -4 7 -2 12 3 12 6 0 11 -5 11 -12 0 -6
21 -31 46 -55 25 -23 42 -43 38 -43 -5 0 1 -7 13 -15 22 -15 22 -52 0 -38 -6
4 -8 0 -4 -11 4 -10 3 -15 -3 -11 -6 3 -10 1 -10 -5 0 -6 -4 -8 -10 -5 -6 3
-7 -1 -4 -9 4 -11 0 -16 -11 -16 -9 0 -14 -4 -10 -9 3 -6 -3 -14 -12 -20 -10
-6 -14 -11 -9 -11 4 0 0 -8 -11 -17 -10 -10 -14 -16 -8 -13 6 3 3 -2 -7 -11
-9 -9 -14 -19 -11 -23 4 -3 -1 -6 -10 -6 -9 0 -19 -5 -23 -12 -5 -7 -2 -9 7
-4 8 4 5 0 -5 -8 -11 -9 -16 -16 -12 -16 4 0 0 -7 -8 -16 -9 -8 -16 -22 -16
-30 0 -8 -4 -14 -10 -14 -5 0 -10 -14 -10 -31 0 -17 4 -28 10 -24 6 3 10 0 10
-7 0 -9 3 -9 10 2 8 12 10 12 10 1 0 -9 4 -10 13 -4 6 6 22 9 34 8 12 -1 20 2
18 6 -3 4 2 10 11 13 10 4 13 2 9 -7 -4 -6 0 -4 8 5 8 10 17 15 20 11 4 -3 7
-1 7 6 0 7 5 9 10 6 6 -3 10 -1 10 5 0 6 4 9 9 6 11 -7 63 19 55 27 -3 3 2 4
12 3 10 -2 25 3 32 11 11 11 17 11 28 2 12 -10 13 -9 8 5 -5 12 0 16 19 16 14
0 31 8 36 18 6 10 11 12 11 4 0 -7 5 -10 12 -6 6 4 17 -1 25 -12 8 -10 17 -18
21 -16 4 2 10 -7 14 -20 3 -13 6 -16 7 -8 1 9 8 5 19 -13 10 -15 22 -24 25
-20 4 3 7 2 7 -4 0 -15 47 -63 54 -56 3 4 6 -1 6 -11 0 -9 5 -14 10 -11 6 4
10 3 9 -2 -4 -21 2 -33 15 -33 8 0 17 -9 21 -20 3 -11 12 -19 18 -17 7 1 11
-4 10 -10 -2 -7 2 -13 8 -13 5 0 7 -6 3 -12 -4 -7 -4 -10 1 -6 4 4 14 3 22 -3
16 -14 18 -33 2 -23 -8 4 -8 0 0 -15 10 -18 9 -20 -5 -14 -12 4 -15 3 -10 -5
4 -7 2 -12 -4 -12 -6 0 -15 -12 -20 -26 -7 -17 -15 -24 -25 -20 -8 3 -14 2
-14 -2 3 -17 -2 -35 -7 -29 -10 10 -32 -17 -26 -32 3 -9 1 -12 -6 -7 -6 3 -13
-3 -17 -14 -4 -11 -10 -18 -15 -15 -7 4 -24 -24 -20 -33 1 -2 -7 -10 -17 -18
-10 -7 -14 -14 -9 -14 6 0 1 -6 -10 -14 -16 -13 -17 -18 -6 -35 6 -12 12 -28
12 -36 0 -8 5 -15 11 -15 5 0 7 5 4 10 -4 6 8 10 29 10 43 0 88 19 79 34 -4 7
-1 6 7 -1 10 -9 16 -8 27 3 12 11 18 12 29 3 12 -10 13 -9 8 6 -5 13 -4 16 4
11 7 -4 12 -2 12 4 0 6 5 8 10 5 6 -3 24 3 40 15 17 12 38 19 46 16 8 -3 12
-1 9 4 -3 5 7 12 22 16 15 4 31 12 35 18 5 7 8 6 8 -3 0 -10 3 -11 14 -2 11 9
15 8 20 -5 4 -9 9 -15 12 -12 2 3 26 -16 51 -41 26 -25 51 -45 55 -44 4 2 8
-2 8 -8 0 -13 58 -69 71 -69 4 0 5 -7 2 -17 -4 -9 -2 -14 3 -11 14 9 47 -19
38 -33 -4 -7 -3 -10 2 -6 5 3 21 -4 34 -15 14 -11 18 -17 10 -13 -12 5 -12 4
1 -7 17 -14 14 -20 -23 -56 -10 -9 -18 -22 -18 -29 0 -7 -7 -13 -15 -13 -9 0
-12 -6 -9 -15 4 -8 1 -15 -6 -15 -6 0 -8 -5 -4 -12 5 -8 2 -9 -12 -4 -10 4
-15 4 -12 0 4 -4 3 -15 -2 -25 -7 -11 -7 -20 0 -24 5 -3 7 -13 4 -23 -4 -10
-2 -13 3 -7 4 6 20 10 36 10 15 -1 27 2 27 5 0 4 6 7 13 8 29 2 106 35 101 43
-3 5 6 9 20 9 14 0 26 6 26 13 0 8 4 7 10 -3 5 -8 10 -10 10 -4 0 7 11 9 25 6
14 -2 25 -11 25 -18 0 -8 10 -14 24 -14 14 0 32 -10 40 -22 9 -12 16 -18 16
-13 0 5 9 -1 20 -12 10 -12 29 -24 40 -28 11 -4 18 -11 15 -16 -4 -5 1 -9 9
-9 9 0 16 -4 16 -10 0 -5 6 -9 13 -7 6 1 11 -3 10 -10 -2 -7 6 -10 18 -8 15 3
19 0 15 -11 -3 -8 -2 -13 3 -9 5 3 16 -2 25 -11 9 -8 20 -13 25 -10 5 3 11 -1
15 -9 3 -8 12 -15 21 -15 8 0 15 -4 15 -10 0 -5 7 -10 15 -10 8 0 15 -4 15
-10 0 -5 7 -10 15 -10 8 0 15 -2 15 -4 0 -10 -27 -55 -42 -70 -10 -9 -14 -24
-11 -33 5 -13 2 -15 -13 -9 -15 6 -16 5 -7 -5 18 -18 45 -20 62 -6 12 10 13 9
7 -3 -7 -13 -6 -13 6 0 7 8 19 15 26 16 28 2 33 4 28 13 -3 4 4 8 17 7 12 0
21 4 20 11 -2 7 4 10 12 7 8 -4 12 -11 8 -17 -4 -6 -1 -7 8 -1 21 13 40 14 32
1 -4 -6 0 -8 10 -4 12 4 17 1 17 -11 0 -15 2 -15 10 -2 6 10 10 11 10 3 0 -8
13 -13 33 -13 24 0 28 -3 17 -10 -12 -8 -10 -10 10 -11 14 -1 31 -2 38 -2 6 1
12 -3 12 -8 0 -5 7 -9 16 -9 8 0 13 -4 10 -9 -3 -5 0 -9 7 -8 38 1 58 -4 52
-14 -4 -6 0 -9 11 -7 11 2 18 -2 17 -9 -2 -7 4 -10 12 -7 8 4 31 -3 51 -15 19
-12 32 -17 29 -11 -3 5 0 7 8 4 8 -3 20 -15 26 -27 9 -17 10 -18 6 -3 -6 20
-6 20 16 0 11 -10 24 -19 28 -19 3 0 5 -4 3 -10 -3 -16 87 -13 93 2 2 7 -2 13
-9 13 -9 0 -12 12 -11 35 1 19 -2 35 -6 35 -4 0 -10 7 -13 16 -4 10 -2 13 7 8
9 -6 9 -5 0 8 -7 8 -9 19 -5 23 4 5 1 5 -5 1 -10 -5 -13 3 -13 28 0 20 -4 36
-8 36 -4 0 -9 12 -10 27 -1 15 -8 30 -15 35 -9 6 -9 8 1 8 7 0 10 5 7 10 -4 6
-10 8 -15 5 -4 -3 -6 4 -3 15 3 11 10 20 16 20 6 0 7 3 4 6 -9 10 12 46 23 39
6 -3 7 0 4 8 -3 8 0 18 7 23 8 5 10 3 4 -6 -5 -9 -4 -11 4 -6 6 4 9 11 6 16
-3 5 1 15 9 23 8 8 12 17 9 21 -4 3 -1 6 6 6 8 0 11 7 7 15 -3 10 1 15 12 15
15 0 15 2 2 10 -13 9 -13 10 0 10 12 0 12 2 2 9 -8 4 -13 11 -13 15 4 26 -9
30 -38 12 -10 -6 -12 -5 -7 2 9 14 -13 16 -34 2 -9 -6 -20 -5 -29 3 -10 8 -13
8 -8 1 9 -16 -13 -31 -40 -28 -42 3 -44 4 -38 15 4 6 -1 17 -11 25 -11 9 -13
13 -6 9 18 -9 15 2 -8 25 -11 11 -20 26 -20 33 0 8 4 7 10 -3 7 -10 10 -11 10
-2 0 7 -7 15 -15 18 -8 4 -12 10 -9 15 3 5 1 9 -4 9 -9 0 -27 47 -24 63 1 4
-3 6 -9 5 -6 -2 -14 10 -16 27 -2 16 -10 33 -16 37 -9 5 -8 10 2 20 10 10 12
10 7 1 -4 -7 -5 -13 -2 -13 6 0 36 54 38 67 0 5 9 14 20 22 11 7 17 20 14 28
-3 8 -1 11 4 8 5 -3 12 6 16 20 3 14 11 25 17 25 6 0 7 3 4 7 -4 3 -1 13 6 21
10 13 9 14 -2 7 -10 -6 -12 -4 -6 5 12 19 14 70 2 70 -5 0 -6 7 -3 16 3 8 2
13 -3 9 -5 -3 -12 1 -14 7 -3 7 -6 4 -6 -6 -1 -20 -1 -20 -16 0 -10 13 -14 14
-15 5 0 -11 -3 -11 -15 -1 -11 9 -15 9 -15 1 0 -7 -4 -9 -10 -6 -5 3 -10 1
-10 -6 0 -9 -3 -9 -14 0 -12 10 -17 8 -25 -7 -8 -15 -20 -20 -45 -18 -20 1
-32 -3 -30 -9 3 -6 -10 -12 -27 -13 -24 -2 -30 1 -26 12 4 11 1 13 -10 9 -11
-4 -14 -2 -9 5 4 7 2 12 -3 12 -6 0 -11 7 -11 16 0 8 -4 13 -9 10 -9 -6 -38
53 -33 67 1 5 -2 6 -8 2 -5 -3 -10 1 -10 9 0 9 -3 16 -8 16 -4 0 -13 9 -19 20
-10 15 -10 22 3 34 8 9 12 21 8 28 -5 8 -2 9 9 5 11 -4 14 -2 10 8 -3 8 2 18
11 21 9 3 13 10 10 15 -3 5 0 9 6 9 6 0 10 8 8 18 -2 9 2 16 9 15 7 -2 10 4 7
12 -4 8 -1 15 6 15 6 0 9 4 6 9 -3 5 1 11 9 15 8 3 15 15 15 26 0 11 5 20 11
20 5 0 7 5 4 10 -3 6 -1 10 4 10 6 0 11 8 11 18 0 10 3 22 7 25 11 11 12 57 2
57 -6 0 -8 4 -4 10 7 11 -30 51 -39 43 -3 -4 -6 -1 -6 5 0 7 -5 12 -11 12 -5
0 -7 -6 -3 -12 5 -9 2 -9 -9 1 -14 11 -17 11 -17 0 0 -10 -3 -10 -11 -2 -12
12 -46 0 -61 -21 -10 -14 -39 -16 -31 -3 5 8 2 8 -9 0 -8 -7 -18 -10 -21 -6
-4 3 -7 1 -7 -5 0 -7 -7 -12 -15 -12 -8 0 -15 -6 -15 -12 0 -9 -4 -8 -10 2 -6
10 -10 11 -10 3 0 -7 -11 -15 -25 -19 -14 -3 -25 -10 -25 -16 0 -5 -10 -6 -21
-3 -15 5 -19 4 -15 -4 5 -7 -2 -11 -19 -11 -14 0 -28 7 -31 15 -4 8 -10 12
-15 9 -5 -3 -6 3 -2 12 4 12 3 15 -5 10 -11 -6 -17 5 -13 26 0 5 -2 7 -7 7
-18 -3 -33 2 -28 10 3 5 -6 17 -19 27 -14 10 -25 24 -25 31 0 6 -9 15 -20 18
-11 3 -20 12 -20 18 0 7 -11 21 -25 31 -13 10 -22 22 -19 27 3 5 -1 9 -8 9 -9
0 -9 3 2 10 8 5 11 10 6 10 -6 0 -1 7 10 16 10 8 12 13 4 9 -10 -4 -9 -2 3 8
9 8 17 19 17 26 0 6 8 11 18 11 14 0 15 2 2 10 -13 9 -7 14 12 11 5 0 7 2 6 7
-3 14 14 62 23 62 5 0 9 11 9 25 0 14 5 25 11 25 7 0 9 10 7 25 -3 14 -1 28 5
32 6 4 7 1 2 -7 -5 -8 -4 -11 3 -6 14 9 3 38 -12 30 -6 -3 -2 2 8 10 17 14 18
16 3 16 -9 0 -16 3 -16 8 4 21 -3 31 -16 26 -8 -4 -15 -1 -15 5 0 6 -7 8 -17
4 -11 -4 -14 -3 -9 5 5 8 2 10 -8 6 -9 -3 -13 -11 -9 -18 4 -6 -5 -3 -19 6
-26 17 -27 17 -43 -4 -8 -12 -15 -16 -15 -9 0 8 -8 3 -20 -10 -12 -15 -19 -19
-20 -10 0 11 -3 11 -15 1 -8 -6 -19 -9 -25 -5 -6 4 -9 1 -8 -5 3 -12 -17 -20
-53 -23 -11 -1 -15 -7 -11 -17 5 -13 4 -13 -13 0 -11 9 -16 10 -11 3 4 -7 4
-13 -1 -14 -4 0 -18 -2 -31 -5 -16 -3 -21 0 -16 8 5 7 3 8 -5 4 -14 -9 -51 21
-51 41 0 8 -4 11 -10 8 -5 -3 -10 1 -10 10 0 10 -5 13 -12 9 -8 -5 -9 0 -6 14
4 12 3 20 -2 17 -10 -6 -60 33 -60 46 0 14 -26 39 -39 39 -6 0 -10 3 -10 8 3
19 -2 33 -10 28 -8 -5 -8 15 -1 34 1 3 2 8 1 13 0 4 4 7 11 7 6 0 8 3 5 7 -4
3 2 12 13 20 11 7 17 20 14 28 -4 8 1 17 9 21 9 3 13 12 10 20 -3 8 0 14 7 14
6 0 9 4 5 9 -3 6 3 14 12 20 13 8 14 10 4 11 -11 0 -10 4 5 16 10 8 13 13 7 9
-7 -3 -13 -1 -13 4 0 6 4 11 9 11 11 0 24 38 22 70 -2 45 -4 50 -19 50 -8 0
-12 6 -9 13 3 9 -10 12 -48 12 -35 0 -51 -3 -48 -11 3 -8 -7 -10 -27 -8 -20 2
-37 -3 -50 -16 -13 -13 -20 -15 -24 -7 -2 7 -5 3 -5 -8 -1 -17 -3 -17 -11 -5
-6 10 -10 11 -10 3 0 -7 -5 -13 -11 -13 -5 0 -7 6 -4 13 4 6 -1 3 -9 -7 -9
-11 -16 -16 -16 -10 0 5 -4 3 -8 -3 -4 -7 -17 -14 -27 -16 -11 -1 -26 -7 -34
-12 -10 -5 -16 -4 -19 3 -2 7 -8 10 -13 6 -5 -3 -9 0 -9 6 0 6 -3 9 -7 7 -5
-3 -13 1 -20 8 -10 11 -10 15 0 18 9 4 9 6 0 6 -18 1 -53 33 -53 49 0 7 -4 10
-10 7 -5 -3 -10 -1 -10 5 0 6 -10 21 -21 33 -12 12 -18 15 -14 7 5 -10 5 -12
-3 -5 -5 6 -12 19 -14 30 -2 11 -13 25 -26 30 -15 6 -21 16 -18 27 2 10 -1 21
-6 25 -7 4 -8 1 -3 -7 6 -9 4 -11 -5 -5 -10 6 -7 13 11 27 13 11 17 16 9 12
-12 -6 -13 -5 -3 8 7 8 9 18 5 22 -4 4 0 6 8 4 8 -2 15 3 16 10 1 6 2 17 3 23
0 5 5 8 9 5 5 -3 9 1 10 9 1 8 3 22 4 30 1 8 8 17 15 19 8 3 11 10 8 16 -3 5
-1 10 5 10 6 0 8 5 5 10 -3 6 -1 10 4 10 6 0 10 6 8 13 -1 6 4 11 11 9 8 -1
11 2 7 9 -4 6 -7 29 -7 50 1 22 -3 37 -8 34 -5 -3 -11 3 -14 13 -9 26 -48 21
-124 -16 -73 -36 -107 -34 -71 4 12 13 26 24 31 24 11 0 181 131 196 152 7 10
18 16 23 13 5 -4 6 2 2 12 -3 10 -3 15 1 11 5 -4 29 14 55 40 25 25 50 45 54
44 5 -1 6 2 2 8 -3 5 1 13 9 16 9 3 13 11 9 17 -4 6 0 8 10 4 10 -4 16 -2 14
6 -1 8 9 11 28 10 22 -2 26 0 15 7 -8 5 -10 10 -4 10 6 0 19 -9 29 -20 15 -16
21 -18 33 -7 10 7 13 8 9 1 -7 -12 51 -46 65 -38 4 3 8 0 8 -5 0 -6 9 -11 20
-11 10 0 24 -8 29 -17 6 -10 11 -13 11 -7 0 6 7 11 15 11 8 0 12 -4 9 -8 -2
-4 0 -10 6 -14 5 -3 10 0 10 7 0 11 2 11 9 0 4 -8 17 -12 27 -10 12 2 18 -2
16 -11 -3 -12 0 -12 12 -1 9 7 16 10 16 6 0 -3 8 2 18 12 11 10 15 21 10 28
-4 6 -5 14 -1 17 3 4 0 7 -7 7 -7 0 -11 3 -7 6 3 4 -4 15 -16 26 -12 11 -15
17 -7 13 10 -4 9 -2 -2 8 -10 8 -15 17 -12 20 3 3 -6 13 -20 22 -14 10 -26 23
-26 30 0 8 -9 17 -20 20 -11 4 -20 15 -20 27 0 14 -5 18 -16 14 -10 -4 -14 -1
-11 6 2 7 -5 21 -16 31 -12 10 -15 17 -7 17 7 0 10 7 6 16 -5 12 -2 15 13 11
12 -3 18 1 17 12 0 9 5 15 12 14 11 -3 17 10 13 31 -1 5 6 5 16 2 9 -4 15 -4
11 -1 -7 8 33 51 44 48 5 -2 7 0 6 5 -3 14 14 42 23 36 5 -3 9 0 9 6 0 6 5 8
10 5 6 -4 10 -3 9 2 -4 15 13 43 23 37 5 -3 12 3 15 15 3 11 9 19 13 16 5 -3
11 4 15 15 4 11 10 18 15 15 5 -3 11 4 15 14 4 13 11 18 22 14 12 -5 14 -3 8
8 -6 9 0 8 19 -5 16 -10 25 -13 22 -7 -4 6 -2 11 3 11 6 0 11 -4 11 -9 0 -5 7
-12 16 -15 10 -4 13 -2 8 6 -4 7 9 2 29 -11 20 -12 42 -19 48 -15 8 4 9 3 5
-4 -4 -7 -1 -12 9 -12 10 0 13 -5 9 -12 -5 -9 -3 -9 9 1 14 11 18 11 23 -3 4
-10 13 -15 20 -12 8 3 14 0 14 -6 0 -6 3 -8 7 -5 3 4 12 2 20 -4 7 -6 13 -8
13 -4 0 4 8 1 17 -6 15 -12 16 -12 8 1 -7 12 -6 13 6 4 11 -9 19 -6 39 14 14
13 20 22 13 18 -6 -3 -14 -2 -18 4 -3 5 0 10 7 10 10 1 9 4 -2 13 -8 7 -16 19
-18 27 -2 8 -10 20 -19 27 -8 7 -12 17 -7 24 4 7 3 10 -3 6 -11 -7 -49 41 -45
55 1 5 -1 7 -6 7 -21 -4 -31 3 -37 24 -4 12 -17 32 -28 45 -15 16 -17 22 -6
22 11 0 11 2 1 9 -10 6 -9 11 4 22 16 12 17 12 10 -1 -4 -8 0 -6 8 4 9 11 16
24 16 29 0 4 3 6 8 4 4 -2 20 9 35 25 15 15 25 28 22 28 -3 0 0 6 7 14 7 8 15
13 18 11 3 -2 11 3 18 11 7 8 10 14 6 14 -4 0 7 13 24 28 18 16 29 32 25 35
-3 4 1 7 10 7 9 0 17 7 17 16 0 8 5 12 10 9 6 -3 10 -1 10 5 0 6 4 8 10 5 6
-4 7 1 3 11 -4 11 -3 15 5 10 6 -4 16 3 23 15 9 17 13 19 20 8 5 -8 9 -9 9 -4
0 19 40 11 46 -8 5 -16 8 -17 15 -6 7 11 9 11 9 -2 0 -11 8 -16 23 -15 12 0
21 -4 20 -11 -2 -7 4 -10 13 -6 9 3 20 0 25 -8 7 -12 9 -12 9 0 0 11 4 10 16
-5 8 -10 13 -13 9 -7 -4 9 -1 11 9 7 9 -3 16 -10 16 -14 0 -5 9 -7 20 -5 11 2
23 -1 26 -7 5 -7 2 -8 -7 -3 -12 7 -12 5 -1 -6 11 -11 14 -12 21 -1 7 11 9 11
14 -2 4 -9 14 -13 27 -11 13 3 18 0 14 -7 -5 -7 -1 -9 9 -5 10 4 17 1 17 -5 0
-6 3 -9 6 -5 4 3 14 -2 23 -11 9 -10 12 -12 7 -5 -14 21 -2 15 30 -13 16 -15
22 -23 14 -19 -8 3 -6 -1 4 -9 11 -9 24 -16 30 -16 5 0 6 -3 3 -7 -4 -3 6 -17
21 -31 15 -14 26 -30 25 -34 -2 -4 0 -7 5 -7 4 1 14 1 22 0 13 -1 13 -2 0 -11
-9 -6 -10 -10 -3 -10 16 0 90 -75 98 -100 4 -11 12 -17 21 -13 7 3 14 0 14 -7
0 -6 7 -18 15 -27 8 -8 13 -19 10 -23 -3 -5 3 -7 14 -5 11 2 22 -3 25 -11 4
-10 2 -13 -7 -8 -8 6 -8 3 1 -9 8 -9 17 -16 20 -15 22 2 33 -4 29 -16 -4 -10
0 -12 14 -9 10 3 19 0 19 -6 0 -6 3 -10 8 -10 4 1 10 0 15 -1 4 -1 12 -4 17
-5 6 -1 11 -3 13 -5 9 -7 36 -7 31 1 -3 5 -1 9 5 9 5 0 11 -5 13 -12 3 -7 9
-8 19 -3 14 9 20 11 56 18 9 2 19 9 21 16 3 9 7 9 18 0 12 -10 13 -8 8 7 -4
10 -4 16 0 12 5 -4 19 4 31 16 23 23 23 29 23 201 l0 179 -39 37 c-25 24 -34
39 -26 42 6 3 4 6 -7 6 -23 1 -58 40 -49 54 3 6 1 7 -5 3 -7 -4 -12 -1 -12 8
0 8 -8 16 -17 18 -14 2 -18 15 -19 57 -1 32 -7 57 -15 62 -8 5 -9 9 -3 9 6 0
11 7 11 15 0 8 -5 15 -11 15 -6 0 -4 5 4 10 10 6 11 10 3 10 -8 0 -13 14 -13
35 0 19 -5 35 -11 35 -8 0 -8 5 1 15 9 11 9 15 1 15 -7 0 -10 4 -6 9 3 5 1 12
-4 16 -6 3 -8 12 -4 20 3 8 1 15 -5 15 -5 0 -13 7 -16 16 -5 14 -4 15 9 4 13
-11 14 -10 9 4 -3 9 -10 16 -15 16 -4 0 -5 7 -2 17 4 10 2 14 -4 10 -7 -4 -10
0 -8 10 1 10 -2 24 -8 31 -5 6 -6 12 -1 12 5 0 4 4 -3 8 -7 4 -13 22 -15 39
-1 17 -7 31 -13 30 -5 -1 -9 4 -8 11 2 6 -3 12 -10 12 -8 0 -7 4 3 10 13 8 13
10 -2 10 -11 0 -16 6 -13 19 2 11 -3 25 -11 31 -7 7 -11 16 -8 21 3 5 -2 9
-11 9 -9 0 -14 4 -11 9 3 5 -4 21 -16 37 -13 15 -16 24 -9 19 10 -5 12 -4 7 3
-4 7 -14 12 -22 12 -8 0 -12 4 -9 10 6 10 -20 57 -44 79 -14 12 -14 13 3 7 19
-7 19 -6 2 13 -10 11 -24 18 -30 14 -6 -4 -5 0 2 9 10 13 10 18 1 24 -8 5 -9
3 -4 -6 5 -8 4 -11 -2 -7 -6 4 -9 18 -8 31 2 18 -1 23 -11 19 -8 -3 -14 0 -14
7 0 17 -26 40 -36 32 -5 -4 -2 1 5 11 11 14 11 17 -1 17 -9 0 -14 9 -14 23 1
13 -4 21 -12 19 -7 -1 -17 9 -22 22 -5 13 -15 27 -22 31 -10 6 -11 5 0 -6 6
-7 12 -17 12 -22 0 -12 -22 13 -42 49 -10 17 -15 34 -11 38 3 3 1 6 -4 6 -6 0
-13 -5 -15 -12 -2 -6 -10 3 -17 20 -8 18 -18 32 -23 32 -5 0 -6 6 -2 13 5 8 2
7 -9 -2 -10 -8 -20 -11 -24 -7 -3 3 -1 6 5 6 7 0 12 5 12 12 0 6 -3 9 -6 5
-12 -11 -36 24 -37 51 0 15 -2 21 -4 15 -3 -7 -9 -13 -13 -13 -15 0 -60 47
-53 54 4 4 0 4 -10 0 -10 -3 -17 -1 -17 6 0 6 -5 8 -12 4 -9 -6 -9 -3 0 9 12
14 11 16 -5 13 -10 -2 -29 8 -43 22 -14 14 -17 20 -7 12 9 -7 20 -10 24 -6 3
3 1 6 -6 6 -7 0 -10 4 -7 8 2 4 -5 9 -16 9 -11 1 -27 10 -35 20 -9 11 -12 12
-8 3 4 -10 2 -9 -8 2 -8 10 -17 15 -20 11 -4 -3 -7 2 -8 13 0 10 -3 13 -6 7
-6 -16 -24 -17 -20 -1 1 6 -9 17 -23 25 -14 7 -24 17 -23 22 1 5 -4 12 -13 15
-8 3 -12 2 -9 -4 3 -6 1 -10 -4 -10 -6 0 -11 7 -11 15 0 8 -8 15 -17 15 -10 0
-25 5 -33 11 -13 9 -12 10 3 5 11 -3 16 -2 12 4 -3 6 -15 10 -26 10 -10 0 -19
5 -19 11 0 8 -5 7 -16 -1 -13 -11 -16 -10 -21 8 -3 12 -10 22 -15 22 -5 0 -6
-5 -2 -12 4 -7 3 -8 -5 -4 -9 6 -9 11 1 24 11 13 11 14 -1 8 -17 -11 -92 13
-84 27 3 5 -3 6 -15 3 -14 -5 -25 0 -36 16 -11 15 -16 17 -16 8 0 -12 -2 -12
-9 -2 -4 8 -12 14 -17 15 -5 1 -8 4 -7 7 1 3 -14 7 -33 8 -56 3 -64 5 -64 16
0 6 -5 5 -12 -2 -7 -7 -17 -12 -22 -12 -6 0 -4 5 4 10 12 8 9 10 -13 10 -19 0
-26 4 -22 13 4 6 0 3 -9 -7 -14 -18 -16 -18 -22 -2 -5 14 -9 15 -15 4 -7 -10
-9 -10 -9 0 0 6 -5 12 -11 12 -5 0 -7 -6 -3 -12 6 -10 4 -10 -7 0 -7 6 -17 12
-22 12 -4 0 -5 -6 -1 -12 5 -8 1 -7 -10 2 -11 8 -33 13 -53 11 -26 -2 -33 0
-27 10 5 8 2 11 -8 6 -10 -3 -19 3 -27 19 -6 13 -15 24 -21 24 -5 0 -10 8 -10
17 0 9 -3 14 -6 10 -8 -7 -48 32 -57 56 -3 9 -11 17 -17 17 -6 0 -21 10 -34
23 -45 43 -71 62 -83 59 -7 -2 -13 2 -13 9 0 8 -5 7 -17 -2 -9 -8 -14 -9 -10
-3 8 14 -72 16 -90 2 -7 -6 -17 -7 -23 -3 -5 3 -10 1 -10 -4 0 -6 -3 -10 -7
-9 -20 5 -74 -36 -89 -67 -9 -19 -24 -37 -34 -40 -12 -4 -17 -12 -13 -22 4
-10 2 -14 -4 -10 -7 5 -9 -1 -5 -15 4 -15 2 -19 -7 -13 -10 6 -11 3 -2 -14 7
-11 8 -21 3 -21 -10 0 -6 -65 4 -82 5 -7 2 -8 -7 -3 -8 5 -5 -2 6 -15 11 -13
14 -20 8 -16 -7 4 -13 2 -13 -3 0 -6 3 -11 8 -11 4 0 18 -23 31 -50 14 -28 32
-50 40 -50 8 0 12 -3 9 -6 -3 -3 27 -39 68 -80 41 -42 74 -80 74 -85 0 -5 7
-9 17 -9 9 0 14 -3 10 -6 -3 -3 18 -29 46 -57 29 -28 46 -47 38 -42 -10 5 -12
4 -7 -3 4 -7 14 -12 22 -12 8 0 12 -4 9 -10 -3 -5 2 -10 11 -10 10 0 15 -3 11
-6 -8 -8 18 -34 34 -34 7 0 9 -3 6 -6 -3 -4 7 -19 23 -34 17 -16 30 -36 31
-47 0 -10 3 -13 6 -6 6 15 25 -1 36 -29 3 -10 12 -18 18 -18 17 0 50 -41 42
-54 -3 -6 -3 -8 2 -4 9 8 35 -15 35 -31 0 -6 6 -11 14 -11 8 0 17 -7 20 -16 3
-8 10 -13 15 -10 5 4 8 -1 7 -10 -1 -9 -10 -21 -19 -26 -10 -5 -14 -14 -11
-20 5 -8 1 -9 -10 -5 -9 4 -15 3 -11 -3 6 -10 -50 -72 -59 -63 -3 3 -8 -6 -12
-21 -3 -14 -12 -26 -20 -26 -8 0 -22 -13 -33 -30 -10 -16 -21 -27 -24 -23 -7
6 -10 -10 -4 -23 1 -3 -11 -12 -28 -20 -16 -8 -22 -12 -12 -9 10 3 15 1 12 -5
-3 -6 -13 -10 -21 -10 -8 0 -14 -5 -14 -11 0 -5 -4 -8 -9 -4 -5 3 -13 0 -17
-6 -5 -9 -11 -7 -21 6 -7 11 -13 13 -13 7 0 -10 -3 -10 -14 0 -8 7 -12 16 -10
19 2 3 -7 5 -21 4 -14 -2 -26 3 -30 13 -5 13 -8 13 -14 4 -6 -10 -11 -9 -22 4
-8 10 -9 15 -2 11 6 -4 14 -3 18 2 3 6 -4 8 -16 6 -13 -3 -29 1 -38 8 -12 9
-13 9 -7 0 9 -17 -4 -17 -29 0 -23 14 -44 15 -64 3 -10 -6 -12 -5 -7 2 10 16
-16 15 -33 0 -11 -11 -12 -10 -6 2 7 12 6 13 -7 3 -8 -7 -18 -10 -22 -6 -4 4
-4 -1 0 -11 4 -11 3 -17 -2 -14 -5 3 -14 0 -21 -7 -10 -11 -10 -14 0 -18 9 -3
9 -9 -1 -27 -8 -12 -9 -19 -3 -16 5 4 12 2 16 -4 3 -5 0 -10 -7 -10 -9 -1 -8
-4 3 -13 9 -7 14 -17 12 -24 -2 -6 3 -25 11 -41 8 -16 12 -33 8 -37 -4 -3 -2
-5 3 -3 6 1 12 -1 14 -7 2 -5 12 -21 22 -34 11 -13 19 -33 19 -45 0 -17 2 -18
10 -6 8 12 10 9 10 -13 0 -16 4 -26 9 -23 4 3 8 -5 7 -17 -1 -13 -7 -21 -15
-19 -8 2 -11 -3 -8 -10 2 -7 -2 -19 -9 -26 -8 -7 -14 -9 -15 -5 0 4 -4 -2 -10
-15 -5 -14 -13 -20 -20 -16 -8 4 -9 3 -5 -4 4 -7 2 -12 -4 -12 -6 0 -9 -4 -5
-9 3 -5 -3 -12 -14 -16 -10 -3 -27 -16 -37 -28 l-19 -22 24 20 25 20 -20 -26
c-11 -16 -26 -25 -37 -23 -16 3 -17 1 -6 -12 10 -12 9 -13 -6 -8 -12 5 -16 4
-11 -4 3 -6 2 -13 -3 -16 -5 -4 -13 -1 -16 4 -5 8 -12 6 -24 -4 -16 -14 -41
-9 -44 10 -1 4 -10 9 -19 9 -10 1 -14 -3 -11 -9 4 -6 -1 -5 -10 2 -9 8 -21 11
-27 7 -5 -3 -10 -1 -10 5 0 6 -4 9 -9 5 -6 -3 -14 3 -20 12 -8 14 -10 15 -11
3 0 -13 -1 -13 -10 0 -9 13 -10 13 -10 0 0 -11 -2 -12 -8 -3 -5 7 -31 15 -59
17 -48 3 -52 2 -62 -23 -16 -41 -17 -77 -2 -94 7 -9 11 -24 7 -32 -3 -9 1 -18
9 -22 12 -4 13 -8 4 -20 -7 -8 -8 -13 -3 -11 5 2 10 -1 11 -5 1 -5 10 -15 20
-23 12 -8 13 -13 5 -14 -7 0 -10 -5 -7 -10 4 -6 11 -8 16 -4 5 3 8 0 7 -8 -2
-7 3 -12 10 -10 10 2 10 -2 1 -19 -6 -12 -7 -19 -1 -15 5 3 12 -3 15 -14 3
-11 1 -20 -3 -20 -5 0 -17 -13 -26 -29 -10 -17 -21 -28 -26 -25 -4 3 -8 -2 -8
-11 0 -11 -5 -15 -14 -12 -8 3 -13 -1 -12 -11 0 -9 -5 -16 -12 -14 -6 1 -11
-2 -10 -7 2 -6 -11 -22 -28 -38 -16 -15 -21 -21 -10 -13 17 12 17 10 -3 -12
-13 -15 -28 -25 -32 -22 -5 3 -9 -2 -9 -10 0 -9 -7 -16 -16 -16 -8 0 -12 -4
-9 -10 3 -5 -1 -10 -10 -10 -9 0 -14 -4 -11 -8 3 -5 -1 -9 -9 -9 -8 0 -12 4
-9 9 3 4 -4 8 -15 8 -12 0 -21 6 -21 13 0 8 -4 7 -10 -3 -6 -10 -10 -11 -10
-2 0 6 -8 12 -19 12 -10 0 -24 7 -31 15 -14 17 -45 21 -35 5 4 -6 11 -7 17 -4
7 4 8 2 4 -5 -4 -6 -11 -9 -16 -6 -9 5 -19 -34 -12 -53 2 -7 8 -10 12 -7 16
10 1 -40 -16 -52 -8 -6 -15 -14 -15 -17 3 -24 0 -36 -9 -31 -5 3 -7 0 -4 -9 5
-13 -48 -56 -134 -106 -15 -8 -37 -25 -51 -37 -19 -17 -29 -20 -44 -11 -15 7
-16 12 -7 18 7 4 9 13 6 19 -4 6 -2 11 4 11 6 0 8 5 5 10 -3 6 0 13 9 16 8 3
17 13 20 21 5 12 3 13 -7 7 -7 -5 -5 -2 5 7 9 9 14 19 11 23 -4 3 -1 6 5 6 7
0 12 6 12 14 0 7 6 19 14 26 8 6 13 17 10 24 -3 8 2 20 10 29 19 18 21 31 4
21 -7 -5 -8 -3 -2 7 10 18 14 80 3 73 -4 -2 -10 0 -14 6 -3 5 0 10 7 10 10 0
9 3 -2 9 -8 6 -18 7 -22 5 -4 -3 -8 0 -8 5 0 13 -22 10 -32 -4 -5 -6 -8 -5 -8
3 0 10 -6 10 -27 -1 -16 -8 -34 -12 -42 -9 -9 3 -11 0 -6 -8 6 -9 3 -9 -14 -1
-17 9 -20 9 -15 -2 3 -8 -2 -17 -12 -21 -12 -5 -15 -2 -10 10 5 13 4 14 -7 6
-8 -7 -17 -9 -21 -5 -4 4 -4 0 -1 -8 5 -13 0 -16 -19 -14 -14 2 -26 0 -26 -3
0 -4 -11 -12 -25 -19 -14 -6 -23 -7 -19 -2 8 13 -10 11 -25 -3 -8 -7 -12 -8
-9 -3 6 13 -28 46 -38 37 -4 -4 -4 3 -1 16 3 12 1 20 -3 17 -5 -3 -17 6 -28
20 -11 13 -22 21 -26 18 -3 -3 -6 1 -6 11 0 9 -4 14 -10 11 -5 -3 -10 -1 -10
5 0 6 -13 24 -30 40 -16 16 -30 34 -30 40 0 6 -4 8 -10 5 -5 -3 -10 -1 -10 5
0 6 -4 8 -10 5 -6 -3 -7 1 -4 9 3 9 2 16 -3 16 -5 0 -9 9 -10 20 -1 11 2 18 8
15 8 -6 13 11 12 42 0 7 4 11 11 10 6 -1 10 4 8 11 -1 6 3 12 9 12 6 0 9 6 6
14 -3 8 1 17 9 20 9 3 12 10 9 16 -3 5 -1 10 5 10 6 0 8 5 5 10 -3 6 -1 10 5
10 6 0 9 4 5 9 -3 5 0 13 6 17 8 4 7 9 -2 15 -10 6 -11 9 -1 9 19 0 16 76 -4
84 -8 3 -13 10 -10 15 3 5 -3 7 -14 4 -11 -3 -20 -1 -20 4 0 11 -30 11 -48 -1
-6 -4 -12 -4 -12 0 0 3 -8 0 -17 -7 -14 -12 -15 -12 -9 -1 7 11 4 12 -11 3
-11 -6 -24 -7 -29 -3 -5 4 -2 -1 5 -11 12 -15 12 -17 -4 -11 -10 4 -21 1 -26
-7 -7 -12 -9 -12 -9 0 0 11 -5 9 -22 -5 -13 -12 -18 -13 -13 -4 6 11 3 10 -12
-3 -11 -9 -23 -14 -26 -10 -4 3 -7 0 -7 -7 0 -9 -7 -7 -22 6 -16 13 -19 14
-10 2 9 -11 10 -18 2 -23 -5 -3 -10 -1 -10 5 0 6 -5 8 -12 4 -6 -4 -8 -3 -5 3
4 6 0 14 -9 17 -9 3 -12 11 -8 18 5 8 2 9 -10 5 -10 -4 -15 -3 -11 3 3 6 -1
13 -9 16 -9 3 -16 13 -16 21 0 8 -4 11 -10 8 -5 -3 -10 -2 -10 2 0 5 -11 20
-24 35 -14 14 -22 29 -18 34 4 4 2 4 -5 0 -14 -8 -36 27 -25 40 4 5 -1 2 -10
-5 -18 -13 -24 -6 -19 22 0 4 -4 7 -10 7 -5 0 -7 5 -4 10 3 6 0 10 -7 10 -7 0
-2 7 10 16 12 8 22 21 22 28 0 8 7 19 15 26 8 7 15 21 15 32 0 12 5 18 13 15
8 -3 14 3 14 16 1 11 6 23 10 26 5 3 8 13 8 21 0 8 5 21 12 28 7 7 10 19 7 26
-3 8 -1 17 5 20 6 4 7 14 4 23 -4 10 -2 14 4 10 7 -5 9 0 6 13 -3 11 -10 17
-17 13 -8 -5 -8 -3 0 8 9 11 9 17 -1 26 -7 6 -16 9 -21 5 -4 -4 -5 0 -1 9 4
13 1 16 -15 11 -12 -3 -19 -1 -15 4 8 13 -33 10 -60 -5 -13 -6 -23 -9 -23 -5
0 4 -8 1 -17 -7 -20 -16 -41 -18 -62 -5 -9 6 -12 5 -8 0 8 -13 -23 -32 -46
-28 -9 1 -15 -1 -12 -6 3 -4 -2 -11 -11 -14 -8 -3 -13 -2 -10 2 3 5 -1 9 -8 9
-8 0 -12 -7 -9 -14 3 -8 2 -13 -3 -12 -5 1 -11 0 -14 -1 -22 -8 -60 -9 -60 0
0 5 -7 10 -15 10 -9 0 -15 9 -15 23 0 18 -2 19 -10 7 -9 -13 -10 -13 -10 0 0
9 -9 23 -20 33 -12 10 -18 22 -15 27 3 6 -1 7 -9 4 -11 -4 -16 0 -16 10 0 9
-7 16 -16 16 -8 0 -13 4 -10 9 3 5 -1 12 -10 15 -8 3 -13 10 -9 15 3 5 -4 12
-15 16 -11 4 -28 19 -38 33 -9 15 -22 32 -28 37 -22 19 -23 43 -3 67 12 13 25
23 30 23 5 0 9 4 8 9 0 5 6 13 15 18 9 5 14 13 11 19 -6 8 8 13 27 10 4 0 5 6
2 14 -6 14 6 20 29 16 5 -1 6 3 3 7 -3 5 5 21 18 35 13 14 22 28 19 31 -3 3 3
4 14 2 14 -3 20 1 19 12 0 9 5 16 12 14 8 -1 11 2 8 7 -4 5 2 16 12 23 10 7
27 25 36 40 10 15 22 25 27 22 5 -3 9 2 9 10 0 9 7 16 16 16 8 0 12 5 9 10 -3
6 -1 10 5 10 6 0 9 4 5 9 -3 5 0 13 6 17 8 4 9 3 5 -4 -4 -7 -2 -12 3 -12 6 0
11 7 11 15 0 9 7 18 15 21 8 4 13 10 10 14 -3 5 4 11 15 15 11 3 20 13 20 21
0 8 5 12 10 9 6 -3 10 1 10 10 0 9 5 13 10 10 6 -3 10 -2 10 4 0 18 79 92 91
85 8 -5 9 -3 4 5 -4 8 1 21 14 32 12 11 21 25 21 31 0 6 3 8 7 5 8 -9 47 72
46 96 0 9 3 17 7 17 4 0 5 12 2 26 -3 19 -1 25 7 20 6 -4 11 -2 11 3 0 6 -4
11 -8 11 -8 0 -12 14 -13 53 0 11 -5 15 -12 10 -8 -4 -7 -1 1 9 11 14 10 18
-5 27 -14 8 -15 11 -3 11 12 0 11 3 -2 11 -10 5 -18 15 -18 20 0 15 -26 39
-34 31 -4 -3 -4 1 0 11 5 13 1 17 -16 17 -11 0 -18 5 -15 10 3 6 -3 10 -14 10
-12 0 -21 5 -21 10 0 6 -9 10 -21 10 -11 0 -18 4 -15 8 3 4 -14 8 -37 7 -23
-1 -47 3 -54 7 -6 5 -14 4 -18 -2z m2985 -320 c0 -5 -5 -10 -11 -10 -5 0 -7 5
-4 10 3 6 8 10 11 10 2 0 4 -4 4 -10z m-4032 -224 c-7 -8 -15 -12 -17 -11 -5
6 10 25 20 25 5 0 4 -6 -3 -14z m4942 -446 c0 -5 -5 -10 -11 -10 -5 0 -7 5 -4
10 3 6 8 10 11 10 2 0 4 -4 4 -10z m-1910 -936 c0 -8 -5 -12 -10 -9 -6 4 -8
11 -5 16 9 14 15 11 15 -7z m1085 -484 c3 -5 1 -10 -4 -10 -6 0 -11 5 -11 10
0 6 2 10 4 10 3 0 8 -4 11 -10z m-805 -754 c0 -2 -8 -10 -17 -17 -16 -13 -17
-12 -4 4 13 16 21 21 21 13z m-182 -671 c-3 -3 -9 2 -12 12 -6 14 -5 15 5 6 7
-7 10 -15 7 -18z m922 -605 c0 -5 -5 -10 -11 -10 -5 0 -7 5 -4 10 3 6 8 10 11
10 2 0 4 -4 4 -10z"/>
<path d="M5506 14458 c3 -5 10 -6 15 -3 13 9 11 12 -6 12 -8 0 -12 -4 -9 -9z"/>
<path d="M7115 14440 c-3 -5 -1 -10 4 -10 6 0 11 5 11 10 0 6 -2 10 -4 10 -3
0 -8 -4 -11 -10z"/>
<path d="M3070 14420 c0 -5 5 -10 10 -10 6 0 10 5 10 10 0 6 -4 10 -10 10 -5
0 -10 -4 -10 -10z"/>
<path d="M5689 14383 c-13 -16 -12 -17 4 -4 16 13 21 21 13 21 -2 0 -10 -8
-17 -17z"/>
<path d="M2970 14379 c0 -5 5 -7 10 -4 6 3 10 8 10 11 0 2 -4 4 -10 4 -5 0
-10 -5 -10 -11z"/>
<path d="M14151 14367 c-13 -21 -12 -21 5 -5 10 10 16 20 13 22 -3 3 -11 -5
-18 -17z"/>
<path d="M6016 14313 c-6 -14 -5 -15 5 -6 7 7 10 15 7 18 -3 3 -9 -2 -12 -12z"/>
<path d="M15106 14128 c3 -5 10 -6 15 -3 13 9 11 12 -6 12 -8 0 -12 -4 -9 -9z"/>
<path d="M11296 14118 c3 -4 11 -5 19 -1 21 7 19 12 -4 10 -11 0 -18 -5 -15
-9z"/>
<path d="M15753 13735 c0 -8 4 -12 9 -9 5 3 6 10 3 15 -9 13 -12 11 -12 -6z"/>
<path d="M15746 13698 c3 -5 10 -6 15 -3 13 9 11 12 -6 12 -8 0 -12 -4 -9 -9z"/>
<path d="M15870 13579 c0 -5 5 -7 10 -4 6 3 10 8 10 11 0 2 -4 4 -10 4 -5 0
-10 -5 -10 -11z"/>
<path d="M1150 13200 c-9 -6 -10 -10 -3 -10 6 0 15 5 18 10 8 12 4 12 -15 0z"/>
<path d="M999 13023 c-13 -16 -12 -17 4 -4 16 13 21 21 13 21 -2 0 -10 -8 -17
-17z"/>
<path d="M833 12815 c0 -8 4 -12 9 -9 5 3 6 10 3 15 -9 13 -12 11 -12 -6z"/>
<path d="M5180 12679 c0 -5 5 -7 10 -4 6 3 10 8 10 11 0 2 -4 4 -10 4 -5 0
-10 -5 -10 -11z"/>
<path d="M7316 12673 c-6 -14 -5 -15 5 -6 7 7 10 15 7 18 -3 3 -9 -2 -12 -12z"/>
<path d="M1139 12343 c-12 -16 -12 -17 2 -6 9 7 20 9 24 5 5 -4 5 -1 1 6 -9
16 -11 15 -27 -5z"/>
<path d="M516 12318 c3 -5 10 -6 15 -3 13 9 11 12 -6 12 -8 0 -12 -4 -9 -9z"/>
<path d="M3776 12318 c3 -5 10 -6 15 -3 13 9 11 12 -6 12 -8 0 -12 -4 -9 -9z"/>
<path d="M976 12153 c-6 -14 -5 -15 5 -6 7 7 10 15 7 18 -3 3 -9 -2 -12 -12z"/>
<path d="M11265 9510 c-4 -6 -11 -7 -17 -4 -7 4 -8 2 -4 -5 6 -9 11 -9 22 0
14 11 18 19 10 19 -3 0 -8 -5 -11 -10z"/>
<path d="M11859 8763 c-13 -16 -12 -17 4 -4 9 7 17 15 17 17 0 8 -8 3 -21 -13z"/>
<path d="M14065 8720 c3 -5 8 -10 11 -10 2 0 4 5 4 10 0 6 -5 10 -11 10 -5 0
-7 -4 -4 -10z"/>
<path d="M14925 7261 c-7 -7 -127 -9 -482 -10 l-363 -1 0 -425 0 -425 340 0
340 0 0 85 0 85 70 0 c39 0 70 -1 70 -2 0 -2 3 -353 7 -780 l6 -778 -92 0 -91
0 2 -337 3 -338 590 0 590 0 0 335 0 335 -82 3 c-70 2 -83 5 -84 20 -3 77 -11
609 -16 1030 l-5 512 76 0 76 0 0 -85 0 -85 338 2 337 3 3 424 c2 333 -1 427
-10 433 -12 8 -1615 7 -1623 -1z"/>
<path d="M6206 7239 c2 -4 -10 -7 -28 -6 -18 0 -205 0 -415 -1 l-383 -2 0
-340 0 -340 85 0 85 0 0 -780 0 -780 -85 0 -85 0 0 -340 0 -340 585 0 585 0 0
340 0 340 -85 0 -85 0 0 333 0 332 20 -25 c11 -14 25 -37 32 -52 7 -16 16 -28
20 -28 5 0 8 -6 8 -13 0 -7 9 -23 20 -35 11 -12 20 -28 20 -36 0 -8 4 -16 8
-18 8 -3 52 -75 76 -125 6 -13 14 -23 19 -23 4 0 7 -7 7 -15 0 -8 5 -15 10
-15 6 0 10 -7 10 -15 0 -8 5 -15 10 -15 6 0 10 -7 10 -15 0 -8 5 -15 10 -15 6
0 10 -4 10 -10 0 -5 20 -44 45 -86 25 -41 45 -78 45 -80 0 -3 9 -14 20 -26 11
-12 20 -28 20 -35 0 -7 4 -13 9 -13 5 0 11 -8 14 -17 7 -22 37 -72 55 -91 6
-7 12 -19 12 -27 0 -7 3 -15 8 -17 9 -4 41 -57 49 -80 3 -10 9 -18 14 -18 5 0
9 -6 9 -14 0 -8 8 -17 17 -20 18 -7 39 14 65 64 7 14 15 27 18 30 8 8 70 111
70 116 0 3 5 10 11 17 18 21 53 81 55 97 2 8 8 16 13 18 6 2 11 10 11 18 0 8
5 14 10 14 6 0 10 7 10 15 0 9 9 25 20 37 11 12 20 28 20 35 0 7 5 13 10 13 6
0 10 6 10 13 0 7 8 22 18 33 10 10 26 36 35 56 10 20 22 40 27 43 6 3 10 13
10 21 0 8 9 24 20 36 11 12 20 28 20 35 0 7 5 13 10 13 6 0 10 4 10 9 0 5 25
50 55 100 30 51 55 96 55 101 0 6 4 10 9 10 5 0 11 10 14 22 4 12 9 20 11 17
6 -6 9 -183 7 -466 l-1 -203 -85 0 -85 0 0 -327 c0 -181 4 -334 8 -341 7 -10
131 -12 588 -10 l579 3 3 338 2 337 -85 0 -85 0 0 303 c0 166 -2 517 -4 779
l-4 477 67 7 c87 9 84 8 99 17 17 11 18 647 0 665 -9 9 -129 12 -478 12 l-467
0 -20 -22 c-11 -13 -34 -48 -50 -78 -44 -82 -57 -103 -70 -118 -7 -7 -13 -17
-13 -22 0 -5 -6 -15 -12 -22 -7 -7 -20 -26 -28 -43 -8 -16 -18 -32 -21 -35 -4
-3 -16 -26 -28 -52 -11 -25 -27 -52 -34 -60 -7 -7 -21 -30 -30 -50 -10 -20
-22 -40 -27 -43 -5 -3 -17 -23 -27 -43 -9 -20 -21 -41 -26 -47 -16 -20 -77
-128 -77 -136 0 -5 -4 -9 -10 -9 -5 0 -10 -9 -10 -20 0 -11 -4 -20 -9 -20 -5
0 -14 -13 -21 -30 -7 -16 -16 -30 -21 -30 -5 0 -9 -6 -9 -14 0 -7 -7 -19 -15
-26 -8 -7 -13 -16 -10 -20 3 -5 1 -11 -5 -15 -5 -3 -17 -23 -27 -43 -9 -20
-25 -46 -35 -56 -10 -11 -18 -26 -18 -33 0 -7 -4 -13 -9 -13 -12 0 -51 54 -51
69 0 6 -4 11 -10 11 -5 0 -10 7 -10 15 0 8 -4 15 -10 15 -5 0 -10 6 -10 13 0
7 -9 23 -20 35 -11 12 -20 28 -20 37 0 8 -4 15 -10 15 -5 0 -10 4 -10 10 0 5
-25 50 -55 101 -30 50 -55 93 -55 96 0 2 -9 13 -20 25 -11 12 -20 28 -20 35 0
7 -4 13 -10 13 -5 0 -10 7 -10 15 0 9 -5 21 -10 28 -17 20 -80 129 -80 138 0
5 -4 9 -10 9 -5 0 -10 6 -10 13 0 7 -9 23 -20 35 -11 12 -20 24 -20 28 0 3 -8
18 -19 32 -10 15 -31 50 -46 77 -16 28 -37 66 -48 85 -11 19 -28 47 -38 62
-11 14 -19 29 -19 33 0 17 -35 38 -68 41 -21 2 -37 3 -37 4 0 1 -12 3 -27 4
-14 1 -25 -2 -22 -5z"/>
<path d="M9610 7239 c0 -3 -87 -6 -192 -7 l-193 -3 -167 -172 c-92 -95 -195
-200 -228 -234 l-60 -61 0 -991 0 -991 235 -235 235 -235 649 0 649 0 236 237
236 236 0 988 0 989 -245 246 -246 246 -454 -4 c-250 -1 -455 -5 -455 -9z
m522 -727 l38 -38 1 -680 c0 -373 0 -689 0 -701 -1 -12 -19 -40 -40 -62 l-39
-41 -201 0 -202 0 -44 45 -45 44 0 695 0 695 43 40 42 40 205 1 205 0 37 -38z"/>
<path d="M12017 7244 c-9 -10 -87 -12 -474 -13 l-363 -1 0 -340 0 -340 85 0
85 0 0 -780 0 -780 -85 0 -85 0 2 -337 3 -338 583 -3 582 -2 0 340 0 340 -85
0 -85 0 0 288 c0 302 0 299 39 217 5 -11 21 -37 35 -58 14 -21 26 -42 26 -47
0 -6 5 -10 10 -10 6 0 10 -6 10 -13 0 -7 8 -22 18 -33 10 -10 26 -37 36 -59
11 -22 22 -42 25 -45 10 -8 42 -63 48 -82 3 -10 9 -18 14 -18 5 0 9 -5 9 -11
0 -6 14 -30 30 -54 17 -24 30 -46 30 -50 0 -3 5 -11 10 -18 17 -20 80 -129 80
-138 0 -5 5 -9 10 -9 6 0 10 -6 10 -13 0 -7 9 -23 20 -35 11 -12 20 -28 20
-37 0 -8 4 -15 9 -15 5 0 13 -9 16 -20 3 -11 12 -26 19 -32 6 -7 20 -29 29
-48 19 -39 29 -55 70 -117 15 -23 27 -46 27 -52 0 -6 4 -11 9 -11 5 0 14 -13
21 -30 7 -16 16 -30 21 -30 5 0 9 -9 9 -20 0 -11 4 -20 9 -20 5 0 14 -13 21
-30 l12 -30 493 0 c440 0 494 2 499 16 3 9 6 162 6 340 l0 324 -90 0 -90 0 1
318 c0 174 -3 525 -7 778 l-7 462 86 3 c47 2 89 7 93 11 3 4 6 54 5 110 -2
208 -12 553 -16 566 -6 15 -1150 18 -1160 2 -8 -14 -9 -665 -1 -679 4 -7 39
-11 87 -11 l79 0 1 -87 c0 -49 3 -180 5 -293 5 -199 4 -204 -13 -185 -10 11
-27 36 -36 55 -10 19 -35 64 -57 99 -22 34 -40 67 -40 72 0 5 -4 9 -10 9 -5 0
-10 7 -10 15 0 8 -4 15 -10 15 -5 0 -10 7 -10 15 0 8 -4 15 -10 15 -5 0 -10 9
-10 20 0 11 -4 20 -10 20 -5 0 -10 5 -10 11 0 6 -9 24 -21 40 -11 16 -18 29
-14 29 3 0 -3 10 -15 22 -11 12 -20 28 -20 35 0 7 -4 13 -10 13 -5 0 -10 5
-10 11 0 6 -13 30 -30 54 -16 24 -30 48 -30 53 0 6 -4 12 -9 14 -5 2 -11 10
-13 18 -2 8 -6 19 -11 25 -26 35 -57 87 -57 95 0 6 -4 10 -10 10 -5 0 -10 6
-10 13 0 7 -9 23 -20 35 -11 12 -20 28 -20 37 0 8 -4 15 -10 15 -5 0 -10 7
-10 15 0 8 -4 15 -10 15 -5 0 -10 7 -10 15 0 8 -3 15 -8 15 -4 0 -15 17 -25
38 -18 39 -24 50 -69 119 -16 23 -28 46 -28 52 0 6 -4 11 -10 11 -5 0 -10 6
-10 13 0 7 -9 23 -20 35 -11 12 -20 28 -20 36 0 8 -8 17 -17 20 -31 9 -92 11
-99 3 -11 -11 -26 -8 -19 3 7 11 2 14 -8 4z"/>
</g>
</svg>
